<svg version="1.1" id="Layer_1" xmlns="http://www.w3.org/2000/svg" xmlns:xlink="http://www.w3.org/1999/xlink" x="0px" y="0px"
	 width="100%" viewBox="0 0 1024 1024" enable-background="new 0 0 1024 1024" xml:space="preserve">
<path fill="#FDFDFD" opacity="1.000000" stroke="none" 
	d="
M698.000000,1025.000000 
	C465.333344,1025.000000 233.166672,1025.000000 1.000000,1025.000000 
	C1.000000,683.666687 1.000000,342.333344 1.000000,1.000000 
	C342.333344,1.000000 683.666687,1.000000 1025.000000,1.000000 
	C1025.000000,342.333344 1025.000000,683.666687 1025.000000,1025.000000 
	C916.166687,1025.000000 807.333313,1025.000000 698.000000,1025.000000 
M555.703552,678.136292 
	C570.379395,671.477966 575.861755,659.761597 575.361267,644.097717 
	C574.877258,628.948486 575.149902,613.769958 575.387817,598.608887 
	C575.421204,596.480713 576.643555,593.854553 578.188904,592.364807 
	C582.588196,588.123840 585.458374,583.279724 585.998352,577.188538 
	C587.619873,558.899780 593.637573,542.024719 603.399414,526.659973 
	C610.955750,514.766663 619.908081,503.765289 627.577515,491.937988 
	C659.489380,442.725739 657.014465,380.485168 623.237976,334.925720 
	C590.298828,290.495605 531.825378,269.811432 478.385529,284.090179 
	C409.547852,302.483124 367.448639,365.624878 377.226624,436.172913 
	C381.131348,464.345276 393.910156,488.636261 411.386566,510.628784 
	C427.083191,530.381592 437.411896,552.336670 439.963013,577.660522 
	C440.539215,583.380432 443.244232,587.948792 447.352966,591.978699 
	C448.889343,593.485657 450.118134,596.093567 450.151123,598.220154 
	C450.394135,613.881287 450.755676,629.564453 450.178375,645.207458 
	C449.629700,660.073181 455.586914,670.489258 468.713562,677.115540 
	C473.763031,679.664490 477.747375,682.858032 480.721161,688.274536 
	C487.400513,700.440186 505.071045,706.548950 521.206787,703.547668 
	C531.443237,701.643677 540.595215,697.574463 545.576172,687.997681 
	C547.896667,683.536072 550.799377,680.568787 555.703552,678.136292 
M445.992004,800.323242 
	C444.139313,795.005371 442.100464,789.742737 440.501343,784.349731 
	C439.486542,780.927185 437.382782,780.254761 434.205322,780.190369 
	C430.951294,780.124512 429.530548,781.486816 428.546204,784.448486 
	C425.516876,793.563049 422.185028,802.576721 419.041138,811.653931 
	C418.314972,813.750610 417.869446,815.944519 417.272736,818.176331 
	C421.945099,819.781006 424.720642,818.968384 425.351074,814.284607 
	C425.911011,810.125122 428.282471,808.759033 432.264648,809.429504 
	C433.720947,809.674683 435.274048,809.693115 436.736511,809.486328 
	C440.582642,808.942444 442.274994,810.513672 443.147827,814.322144 
	C444.369385,819.652100 446.512970,820.248291 451.935913,817.391296 
	C450.029419,811.983459 448.108612,806.534912 445.992004,800.323242 
M713.797791,397.118164 
	C712.500305,397.408875 711.162048,397.580841 709.911865,398.009491 
	C701.587219,400.863892 696.793762,410.292145 699.405762,418.576569 
	C702.266052,427.648529 711.498596,432.633881 720.335632,429.878204 
	C727.873840,427.527557 732.834473,419.836639 731.823608,412.067444 
	C730.690613,403.360046 724.165649,397.670563 713.797791,397.118164 
M324.785706,422.112946 
	C328.185394,415.526672 327.584961,409.148926 323.178192,403.367126 
	C319.595276,398.666168 314.464355,396.772827 308.606140,397.447418 
	C300.995941,398.323761 295.170074,404.233734 294.129303,411.808197 
	C293.094177,419.341553 297.322693,426.611816 304.361176,429.400146 
	C311.787964,432.342316 318.987885,429.950562 324.785706,422.112946 
M524.268127,198.231323 
	C518.251587,193.098679 511.646149,192.582901 504.769775,196.103653 
	C499.190552,198.960251 495.580780,205.895126 496.460693,211.996582 
	C497.462646,218.944000 500.967957,224.081543 507.962982,226.301804 
	C514.559937,228.395721 521.883728,225.831970 526.028198,219.995590 
	C530.543213,213.637405 530.086182,205.838333 524.268127,198.231323 
M661.556641,569.129822 
	C662.547241,568.021729 663.730347,567.031738 664.495178,565.785156 
	C667.821960,560.362549 668.007446,554.783020 664.579651,549.366394 
	C661.261963,544.123718 656.346252,541.749939 650.166687,542.587036 
	C643.760681,543.454773 639.746277,547.295410 637.885559,553.400146 
	C636.090881,559.288574 638.141907,565.713684 642.907288,569.460327 
	C648.060730,573.512024 653.969727,573.551208 661.556641,569.129822 
M639.332336,273.998749 
	C644.535278,280.635101 650.977844,282.624542 657.668640,279.660950 
	C663.820801,276.935944 667.685913,270.125916 666.493469,263.840851 
	C665.346802,257.796967 662.034058,253.521271 655.941040,251.776550 
	C650.038147,250.086288 644.967041,251.846802 641.013000,256.226776 
	C636.421448,261.312866 635.732666,267.158020 639.332336,273.998749 
M366.985016,544.301331 
	C359.918427,549.129456 357.375702,556.175476 360.170074,563.185974 
	C362.737610,569.627380 369.510468,573.502014 376.190918,572.351196 
	C385.126007,570.812012 390.719604,562.469238 388.522552,553.958740 
	C386.116089,544.636841 377.683594,540.608154 366.985016,544.301331 
M373.588348,251.123032 
	C366.509766,251.737961 361.941284,255.502487 359.906128,262.253265 
	C358.274780,267.664490 360.288544,274.008606 364.779785,277.444458 
	C369.830322,281.308136 375.323425,282.082886 381.101685,279.104950 
	C386.482391,276.331940 389.628510,270.011017 388.663452,264.096405 
	C387.460876,256.725677 382.714630,252.403778 373.588348,251.123032 
M505.316132,802.879639 
	C505.179962,809.052002 505.529938,815.033264 512.134216,818.171753 
	C519.784119,821.807251 528.406555,818.675232 531.305725,811.266052 
	C534.789551,802.362671 531.378113,793.021545 523.864380,790.890503 
	C514.474670,788.227478 507.451599,792.476379 505.316132,802.879639 
M564.221924,803.688599 
	C563.988647,799.034119 562.991333,794.708191 558.573547,792.152283 
	C553.168335,789.025085 544.781372,789.903870 540.827637,793.895752 
	C536.467041,798.298401 535.539368,807.506470 538.847595,813.549744 
	C541.527588,818.445435 547.921204,820.662292 554.626282,819.020630 
	C560.786194,817.512512 563.811462,812.945679 564.221924,803.688599 
M592.365417,795.405945 
	C595.066345,795.762146 597.767273,796.118347 600.604553,796.492493 
	C601.945068,793.135315 600.451111,790.947571 597.079224,790.659058 
	C594.044861,790.399414 590.536621,790.356140 587.966125,791.657288 
	C585.859741,792.723450 583.746948,795.850708 583.623901,798.169800 
	C583.504150,800.425049 585.523743,803.194397 587.325989,805.028625 
	C588.852966,806.582947 591.538696,806.929260 593.462585,808.190186 
	C594.541077,808.897034 595.113525,810.375916 595.913940,811.506958 
	C594.640320,812.372864 593.329590,814.006897 592.100586,813.947632 
	C589.396301,813.817078 586.733337,812.831299 582.552856,811.838135 
	C583.787231,814.427246 584.458862,817.616821 585.522034,817.753113 
	C589.791077,818.300476 594.607361,819.029175 598.425354,817.585632 
	C603.932861,815.503052 603.992065,807.433899 599.047852,804.004517 
	C597.164612,802.698364 594.885620,801.967957 592.802124,800.944092 
	C590.381409,799.754700 588.719177,798.343506 592.365417,795.405945 
M494.992615,786.955688 
	C494.737518,781.321838 490.859711,784.630920 488.249939,783.910950 
	C488.057648,786.238037 487.896362,788.190369 487.840759,788.863220 
	C485.989380,790.965820 483.928345,792.288696 484.001740,793.480103 
	C484.094177,794.980530 485.930695,796.373413 487.014709,797.812744 
	C487.984375,799.394348 487.901428,801.558289 488.002960,803.713562 
	C488.174255,807.349304 487.985504,811.094482 488.826050,814.582092 
	C489.806000,818.648193 493.994476,820.207336 498.597473,819.073120 
	C502.294220,818.162048 501.423737,815.686218 500.321289,813.790466 
	C498.197632,812.809387 495.401825,811.558960 495.150299,809.918457 
	C494.486206,805.587158 494.925446,801.086792 494.925446,796.722168 
	C502.274170,795.959167 502.274170,795.959167 500.602600,791.101501 
	C498.813507,789.750366 494.561401,792.926208 494.992615,786.955688 
M577.518127,806.476013 
	C577.518127,797.207397 577.518127,787.938782 577.518127,778.348022 
	C574.901794,778.348022 573.013550,778.348022 570.901245,778.348022 
	C570.901245,791.875854 570.901245,805.094299 570.901245,818.589600 
	C573.142517,818.589600 575.046204,818.589600 577.517456,818.589600 
	C577.517456,814.682739 577.517456,811.072632 577.518127,806.476013 
M462.152222,780.372620 
	C458.700867,779.924866 456.997406,780.934387 457.101837,784.919373 
	C457.362457,794.863892 457.307678,804.820129 457.181122,814.769165 
	C457.143555,817.722290 457.986206,818.917236 461.092346,818.914429 
	C464.349396,818.911499 464.383606,817.093933 464.369354,814.728210 
	C464.308350,804.611877 464.382416,794.494507 464.266937,784.379089 
	C464.252289,783.095215 463.410217,781.820740 462.152222,780.372620 
M619.599426,303.030731 
	C620.655212,303.247955 621.710938,303.465179 622.766724,303.682404 
	C622.964294,301.791565 623.957214,298.757629 623.203918,298.233490 
	C621.278015,296.893494 618.574402,296.671295 616.181824,296.002014 
	C616.539062,297.627289 616.767456,299.297638 617.312561,300.857239 
	C617.553833,301.547852 618.436096,302.014404 619.599426,303.030731 
M690.858948,413.632080 
	C688.451660,409.220947 684.619019,411.741272 681.319275,411.670288 
	C681.327087,413.311096 681.228638,416.375000 681.358154,416.384674 
	C684.678589,416.632599 688.554932,418.921631 690.858948,413.632080 
M511.081604,244.217911 
	C512.594421,243.648788 515.400818,243.073425 515.398132,242.511597 
	C515.385803,239.954269 514.583130,237.400757 514.064636,234.845871 
	C512.776489,235.661469 510.673065,236.256226 510.379211,237.341141 
	C509.855530,239.274261 510.426025,241.503754 511.081604,244.217911 
M668.434875,405.610992 
	C673.164673,407.439270 673.240784,404.378967 672.674133,401.286987 
	C672.288147,399.180634 673.442810,395.421844 669.423035,396.060699 
	C668.473022,396.211639 667.858887,399.614716 667.453979,401.596100 
	C667.238770,402.649109 667.802979,403.861389 668.434875,405.610992 
M586.244141,273.690735 
	C585.220642,274.659760 584.197205,275.628754 583.173706,276.597778 
	C585.445496,278.145142 587.636169,279.845123 590.048889,281.127350 
	C590.617432,281.429504 592.632263,280.454224 592.747620,279.836273 
	C592.933777,278.839081 592.402649,277.293976 591.622070,276.622162 
	C590.270752,275.459137 588.496704,274.787384 586.244141,273.690735 
M635.945923,535.581787 
	C635.256592,534.863770 634.690002,533.836243 633.848267,533.502563 
	C632.676636,533.038086 631.299072,533.093201 630.009644,532.925903 
	C629.940002,534.346313 629.571228,535.840576 629.897583,537.163330 
	C630.148376,538.180054 631.103088,539.353821 632.051758,539.789734 
	C633.442749,540.428833 635.107910,540.471252 636.656250,540.767883 
	C636.568420,539.226501 636.480652,537.685181 635.945923,535.581787 
M388.312927,539.239563 
	C389.748596,539.843018 392.066803,541.311890 392.468811,540.901855 
	C394.318207,539.015869 395.632751,536.605408 397.139221,534.383118 
	C395.730011,533.893188 393.691223,532.571411 393.031006,533.071106 
	C391.139587,534.502747 389.807129,536.672852 388.312927,539.239563 
M535.843872,262.730408 
	C536.603943,261.684326 537.364014,260.638245 538.124146,259.592163 
	C536.151062,258.743744 534.231995,257.452667 532.185791,257.202606 
	C530.823914,257.036133 529.280457,258.355408 527.818237,259.009705 
	C528.950745,260.056763 529.944153,261.361725 531.259033,262.070465 
	C532.340393,262.653351 533.803162,262.528595 535.843872,262.730408 
M337.273621,416.689026 
	C339.082397,416.723877 341.030029,417.180267 342.651428,416.646240 
	C343.743164,416.286682 344.373871,414.527527 345.210846,413.394531 
	C342.537415,412.818298 339.764221,411.516754 337.218201,411.866882 
	C334.596466,412.227448 334.921356,414.564117 337.273621,416.689026 
M361.643494,416.608185 
	C362.187073,415.408142 363.051300,414.224365 363.113403,412.999908 
	C363.137634,412.522644 361.309357,411.443939 360.405334,411.525970 
	C358.061432,411.738647 354.237732,409.830658 353.937225,413.873871 
	C353.614990,418.208740 357.568787,416.436493 359.887024,416.842010 
	C360.203979,416.897430 360.547485,416.801178 361.643494,416.608185 
M548.423889,265.052032 
	C549.375549,265.341064 550.351868,265.932251 551.273804,265.857056 
	C553.276062,265.693665 555.250610,265.189880 557.236450,264.825287 
	C555.672607,263.543945 554.147095,262.210663 552.521912,261.012573 
	C552.027527,260.648132 551.263123,260.540680 550.614197,260.513641 
	C547.508667,260.384399 546.212219,261.561127 548.423889,265.052032 
M608.834412,287.654663 
	C608.459839,287.332336 608.134583,286.900238 607.702393,286.706116 
	C605.425110,285.683228 603.175720,281.401184 600.797791,284.664429 
	C598.134399,288.319427 603.072876,289.416992 605.044617,290.942047 
	C607.838867,293.103271 609.632263,291.884644 608.834412,287.654663 
M666.779846,386.757385 
	C670.475098,386.069092 671.331543,382.849792 668.850098,378.233551 
	C668.399658,377.395630 666.815002,376.270081 666.399963,376.490997 
	C665.435181,377.004395 664.162415,378.345642 664.267883,379.195892 
	C664.567322,381.609497 665.494995,383.945160 666.779846,386.757385 
M393.949127,283.414581 
	C392.546112,283.280060 391.143066,283.145538 389.740051,283.011017 
	C389.828705,284.320648 389.654449,285.726105 390.086273,286.910645 
	C390.455322,287.923035 391.359711,289.022675 392.315002,289.471680 
	C393.687744,290.116974 395.321564,290.206818 396.843964,290.533722 
	C396.679901,289.095825 396.706604,287.598450 396.283203,286.241455 
	C396.011322,285.370087 395.076691,284.705444 393.949127,283.414581 
M635.810730,286.223236 
	C635.739075,284.818237 635.667358,283.413239 635.595642,282.008240 
	C634.415588,282.226044 633.041138,282.139221 632.103760,282.737366 
	C630.881897,283.517090 629.673035,284.687744 629.085327,285.976105 
	C628.595154,287.050629 629.008240,288.537201 629.021301,289.841278 
	C630.343689,289.673401 631.793457,289.782928 632.949280,289.252350 
	C633.922119,288.805817 634.553284,287.614868 635.810730,286.223236 
M664.431213,367.292816 
	C663.864258,364.395905 663.350708,361.484070 662.560059,358.649567 
	C662.523682,358.519012 659.297424,358.615906 658.769958,359.411316 
	C657.306641,361.617920 660.860657,367.067444 664.431213,367.292816 
M405.560394,304.046753 
	C407.052429,303.826630 408.544495,303.606506 410.036530,303.386383 
	C408.980438,301.517975 408.159851,299.440125 406.765503,297.872589 
	C406.102448,297.127167 404.234833,296.980927 403.135559,297.309143 
	C402.638580,297.457520 402.267609,299.565735 402.592529,300.531433 
	C402.979462,301.681396 404.175018,302.559265 405.560394,304.046753 
M575.111084,271.895721 
	C574.489014,270.550415 574.200195,268.486664 573.174683,268.010925 
	C571.104797,267.050720 568.634583,266.953522 566.329529,266.500366 
	C566.349792,267.774872 565.999695,269.991058 566.451416,270.168732 
	C569.077332,271.201538 571.891663,271.755219 575.111084,271.895721 
M652.137390,346.547333 
	C653.669739,347.519867 655.202026,348.492401 656.734375,349.464966 
	C656.628479,347.539459 657.023438,345.380096 656.266235,343.758759 
	C655.599854,342.331818 653.259155,340.325836 652.328796,340.629700 
	C649.098267,341.684845 651.052673,343.980042 652.137390,346.547333 
M625.146851,523.704956 
	C623.811035,522.059387 622.719971,520.035217 621.027588,518.941284 
	C620.275696,518.455261 618.310303,519.846375 616.895752,520.385437 
	C618.277588,522.325928 619.454407,524.493530 621.180786,526.052429 
	C621.630432,526.458435 623.794067,524.966187 625.146851,523.704956 
M645.278442,325.045929 
	C644.024719,324.909515 642.771057,324.773132 641.517334,324.636749 
	C641.473694,325.676880 641.005981,326.990936 641.467224,327.704865 
	C642.758484,329.703461 644.371277,331.515106 646.042358,333.218903 
	C646.233459,333.413727 648.351135,332.206757 648.306335,332.072235 
	C647.575195,329.875824 646.639465,327.747559 645.278442,325.045929 
M402.189575,521.804932 
	C402.247498,523.351074 402.305450,524.897156 402.363403,526.443359 
	C404.390625,525.175598 406.626770,524.129639 408.333282,522.521484 
	C408.941803,521.948059 408.459503,519.948059 408.055878,518.739197 
	C407.939941,518.392090 406.147522,518.163269 405.497803,518.534546 
	C404.395905,519.164307 403.591309,520.314148 402.189575,521.804932 
M517.101990,256.527161 
	C514.955811,256.344666 513.776917,251.676758 511.102264,254.945999 
	C510.248810,255.989182 510.251373,259.314789 510.963776,259.736847 
	C512.587646,260.698914 514.901428,260.695343 516.913574,260.605530 
	C517.244751,260.590759 517.467529,258.145752 517.101990,256.527161 
M633.310364,309.939423 
	C632.047546,309.987488 630.784790,310.035553 629.521973,310.083618 
	C629.666443,311.140503 629.437805,312.530853 630.027161,313.190002 
	C631.617981,314.969513 633.525024,316.479065 635.420654,317.948608 
	C635.567749,318.062653 637.214355,316.743805 637.134338,316.572968 
	C636.151611,314.473938 634.976746,312.464874 633.310364,309.939423 
M672.268921,411.517853 
	C670.021179,410.210480 667.742065,409.684967 667.015869,412.918671 
	C666.808472,413.842377 668.289856,415.978119 669.281677,416.183655 
	C672.372681,416.824127 673.351868,414.978668 672.268921,411.517853 
z"/>
<path fill="#3670C7" opacity="1.000000" stroke="none" 
	d="
M555.389893,678.325745 
	C550.799377,680.568787 547.896667,683.536072 545.576172,687.997681 
	C540.595215,697.574463 531.443237,701.643677 521.206787,703.547668 
	C505.071045,706.548950 487.400513,700.440186 480.721161,688.274536 
	C477.747375,682.858032 473.763031,679.664490 468.713562,677.115540 
	C455.586914,670.489258 449.629700,660.073181 450.178375,645.207458 
	C450.755676,629.564453 450.394135,613.881287 450.151123,598.220154 
	C450.118134,596.093567 448.889343,593.485657 447.352966,591.978699 
	C443.244232,587.948792 440.539215,583.380432 439.963013,577.660522 
	C437.411896,552.336670 427.083191,530.381592 411.386566,510.628784 
	C393.910156,488.636261 381.131348,464.345276 377.226624,436.172913 
	C367.448639,365.624878 409.547852,302.483124 478.385529,284.090179 
	C531.825378,269.811432 590.298828,290.495605 623.237976,334.925720 
	C657.014465,380.485168 659.489380,442.725739 627.577515,491.937988 
	C619.908081,503.765289 610.955750,514.766663 603.399414,526.659973 
	C593.637573,542.024719 587.619873,558.899780 585.998352,577.188538 
	C585.458374,583.279724 582.588196,588.123840 578.188904,592.364807 
	C576.643555,593.854553 575.421204,596.480713 575.387817,598.608887 
	C575.149902,613.769958 574.877258,628.948486 575.361267,644.097717 
	C575.861755,659.761597 570.379395,671.477966 555.389893,678.325745 
M617.862671,340.686523 
	C587.722595,301.868469 548.010742,283.559479 499.171387,288.316071 
	C412.626587,296.744904 360.197815,386.224030 393.739166,466.441833 
	C400.716522,483.128906 411.457428,497.207153 421.984039,511.584290 
	C435.979858,530.699646 445.308228,551.820496 447.868713,575.641663 
	C448.845673,584.730530 454.284485,589.590332 463.574219,589.609253 
	C496.559326,589.676392 529.544800,589.670288 562.529846,589.595764 
	C571.636536,589.575195 576.775513,584.414246 578.115051,575.367981 
	C579.232422,567.822388 580.651917,560.272156 582.642822,552.914795 
	C588.243103,532.219360 600.378906,515.122925 613.278259,498.465271 
	C650.491211,450.409760 651.236450,387.058228 617.862671,340.686523 
M526.500000,597.791748 
	C503.785248,597.791748 481.070496,597.791748 458.525238,597.791748 
	C458.525238,607.119812 458.525238,615.657288 458.525238,624.645203 
	C475.420990,622.714905 491.838837,620.810974 508.263824,618.970337 
	C526.447815,616.932739 544.644470,615.005981 562.814514,612.852722 
	C564.354675,612.670227 566.858337,611.280762 566.990356,610.213928 
	C567.488098,606.192322 567.190247,602.072205 567.190247,597.792542 
	C553.445312,597.792542 540.472656,597.792542 526.500000,597.791748 
M501.205475,640.777100 
	C503.019379,640.536926 504.829346,640.260925 506.647766,640.061890 
	C525.666504,637.981079 544.691223,635.953247 563.695312,633.746887 
	C564.925842,633.604004 566.867493,632.220276 566.988892,631.231018 
	C567.401733,627.865356 567.146729,624.417725 567.146729,620.571899 
	C530.286621,624.651611 494.301117,628.634460 458.353638,632.613159 
	C458.353638,637.062195 458.353638,640.986389 458.353638,645.439209 
	C472.571045,643.884949 486.436249,642.369202 501.205475,640.777100 
M514.788086,658.140259 
	C532.111572,656.223816 549.435059,654.307373 566.828369,652.383179 
	C566.828369,648.529419 566.828369,645.094971 566.828369,641.347168 
	C530.637573,645.430237 494.747406,649.479431 458.808228,653.534119 
	C460.160736,660.352417 462.931458,663.948364 466.489502,663.561462 
	C482.295380,661.842834 498.090729,660.027039 514.788086,658.140259 
M517.500000,675.079224 
	C523.324463,675.090698 529.222046,674.518982 534.957703,675.238403 
	C545.961548,676.618713 553.550171,670.612488 561.157593,664.328308 
	C562.047424,663.593201 562.607239,662.458496 563.930054,660.696533 
	C533.739441,664.164368 504.641724,667.506714 475.544037,670.849060 
	C475.478302,671.438904 475.412567,672.028748 475.346802,672.618591 
	C479.079681,673.446167 482.793121,674.863647 486.549133,674.987183 
	C496.522949,675.315308 506.515137,675.085083 517.500000,675.079224 
M529.596375,692.250305 
	C533.547791,690.254517 536.991821,687.769897 538.993042,683.427612 
	C521.294006,683.427612 504.295990,683.427612 487.056946,683.427612 
	C494.648102,695.750793 512.384277,699.503113 529.596375,692.250305 
z"/>
<path fill="#0E0E0F" opacity="1.000000" stroke="none" 
	d="
M446.089905,800.704834 
	C448.108612,806.534912 450.029419,811.983459 451.935913,817.391296 
	C446.512970,820.248291 444.369385,819.652100 443.147827,814.322144 
	C442.274994,810.513672 440.582642,808.942444 436.736511,809.486328 
	C435.274048,809.693115 433.720947,809.674683 432.264648,809.429504 
	C428.282471,808.759033 425.911011,810.125122 425.351074,814.284607 
	C424.720642,818.968384 421.945099,819.781006 417.272736,818.176331 
	C417.869446,815.944519 418.314972,813.750610 419.041138,811.653931 
	C422.185028,802.576721 425.516876,793.563049 428.546204,784.448486 
	C429.530548,781.486816 430.951294,780.124512 434.205322,780.190369 
	C437.382782,780.254761 439.486542,780.927185 440.501343,784.349731 
	C442.100464,789.742737 444.139313,795.005371 446.089905,800.704834 
M435.977142,792.667786 
	C435.507629,791.293274 435.038086,789.918762 434.272278,787.677002 
	C432.271088,793.503235 430.523956,798.589844 428.670197,803.986816 
	C432.504547,803.986816 435.798981,803.986816 439.736420,803.986816 
	C438.475800,800.229553 437.330750,796.816711 435.977142,792.667786 
z"/>
<path fill="#3670C7" opacity="1.000000" stroke="none" 
	d="
M714.215759,397.098328 
	C724.165649,397.670563 730.690613,403.360046 731.823608,412.067444 
	C732.834473,419.836639 727.873840,427.527557 720.335632,429.878204 
	C711.498596,432.633881 702.266052,427.648529 699.405762,418.576569 
	C696.793762,410.292145 701.587219,400.863892 709.911865,398.009491 
	C711.162048,397.580841 712.500305,397.408875 714.215759,397.098328 
M708.581543,419.875854 
	C714.349182,425.922791 723.145142,422.219604 724.023560,415.672760 
	C724.602966,411.354614 723.426270,407.615265 719.222534,405.656708 
	C715.428772,403.889160 711.630127,404.250519 708.690247,407.437073 
	C705.304993,411.106323 705.295837,415.185181 708.581543,419.875854 
z"/>
<path fill="#3670C7" opacity="1.000000" stroke="none" 
	d="
M324.585938,422.430420 
	C318.987885,429.950562 311.787964,432.342316 304.361176,429.400146 
	C297.322693,426.611816 293.094177,419.341553 294.129303,411.808197 
	C295.170074,404.233734 300.995941,398.323761 308.606140,397.447418 
	C314.464355,396.772827 319.595276,398.666168 323.178192,403.367126 
	C327.584961,409.148926 328.185394,415.526672 324.585938,422.430420 
M303.121002,419.299194 
	C306.516754,423.153320 310.614685,424.271362 315.161346,421.756622 
	C318.647308,419.828522 320.864258,416.309326 319.480896,412.604187 
	C318.405701,409.724243 315.703674,406.401093 312.984222,405.493286 
	C310.471954,404.654663 306.327942,405.956879 304.063812,407.767944 
	C300.687592,410.468567 300.480316,414.671600 303.121002,419.299194 
z"/>
<path fill="#3670C7" opacity="1.000000" stroke="none" 
	d="
M524.525513,198.488953 
	C530.086182,205.838333 530.543213,213.637405 526.028198,219.995590 
	C521.883728,225.831970 514.559937,228.395721 507.962982,226.301804 
	C500.967957,224.081543 497.462646,218.944000 496.460693,211.996582 
	C495.580780,205.895126 499.190552,198.960251 504.769775,196.103653 
	C511.646149,192.582901 518.251587,193.098679 524.525513,198.488953 
M520.314026,215.604385 
	C522.794678,211.582901 522.565125,207.622192 519.548767,204.086975 
	C517.081970,201.195938 513.747742,200.241684 510.072449,201.523590 
	C506.263977,202.851944 504.073364,205.651016 503.773346,209.679352 
	C503.475281,213.681152 505.063141,216.911865 508.714294,218.701935 
	C512.978821,220.792755 516.768616,219.810501 520.314026,215.604385 
z"/>
<path fill="#3670C7" opacity="1.000000" stroke="none" 
	d="
M661.268005,569.354980 
	C653.969727,573.551208 648.060730,573.512024 642.907288,569.460327 
	C638.141907,565.713684 636.090881,559.288574 637.885559,553.400146 
	C639.746277,547.295410 643.760681,543.454773 650.166687,542.587036 
	C656.346252,541.749939 661.261963,544.123718 664.579651,549.366394 
	C668.007446,554.783020 667.821960,560.362549 664.495178,565.785156 
	C663.730347,567.031738 662.547241,568.021729 661.268005,569.354980 
M645.774780,553.605774 
	C643.971497,557.331726 644.117188,561.130737 647.823608,563.114563 
	C650.024109,564.292358 654.135315,564.643677 655.811401,563.340088 
	C657.760559,561.824158 659.115173,557.924683 658.733826,555.355713 
	C657.837341,549.316895 651.313538,548.247192 645.774780,553.605774 
z"/>
<path fill="#3670C7" opacity="1.000000" stroke="none" 
	d="
M639.158203,273.661102 
	C635.732666,267.158020 636.421448,261.312866 641.013000,256.226776 
	C644.967041,251.846802 650.038147,250.086288 655.941040,251.776550 
	C662.034058,253.521271 665.346802,257.796967 666.493469,263.840851 
	C667.685913,270.125916 663.820801,276.935944 657.668640,279.660950 
	C650.977844,282.624542 644.535278,280.635101 639.158203,273.661102 
M658.967957,268.027313 
	C659.216736,261.866821 656.642273,258.581543 651.636047,258.670990 
	C647.214355,258.750061 643.695068,262.544281 644.867188,266.986420 
	C645.472900,269.281891 647.691162,271.974579 649.847656,272.855530 
	C653.578003,274.379395 656.932983,272.739807 658.967957,268.027313 
z"/>
<path fill="#3670C7" opacity="1.000000" stroke="none" 
	d="
M367.327881,544.148987 
	C377.683594,540.608154 386.116089,544.636841 388.522552,553.958740 
	C390.719604,562.469238 385.126007,570.812012 376.190918,572.351196 
	C369.510468,573.502014 362.737610,569.627380 360.170074,563.185974 
	C357.375702,556.175476 359.918427,549.129456 367.327881,544.148987 
M370.643951,550.845947 
	C367.063965,553.022400 365.529846,556.106323 367.027588,560.142090 
	C368.337708,563.672424 371.357605,565.920105 374.816132,564.763855 
	C377.369873,563.910034 380.277313,561.336365 381.168457,558.860046 
	C383.081238,553.544617 377.981018,549.498474 370.643951,550.845947 
z"/>
<path fill="#3670C7" opacity="1.000000" stroke="none" 
	d="
M374.002472,251.123138 
	C382.714630,252.403778 387.460876,256.725677 388.663452,264.096405 
	C389.628510,270.011017 386.482391,276.331940 381.101685,279.104950 
	C375.323425,282.082886 369.830322,281.308136 364.779785,277.444458 
	C360.288544,274.008606 358.274780,267.664490 359.906128,262.253265 
	C361.941284,255.502487 366.509766,251.737961 374.002472,251.123138 
M369.065887,260.450256 
	C366.438507,263.350708 365.442657,266.935272 367.991852,269.867645 
	C369.648804,271.773651 373.155487,273.481049 375.417053,273.056946 
	C377.692291,272.630249 380.382874,269.754486 381.144653,267.389282 
	C381.759491,265.480316 380.409729,261.454163 378.797028,260.654114 
	C376.268372,259.399658 372.783569,260.072693 369.065887,260.450256 
z"/>
<path fill="#0E0E0F" opacity="1.000000" stroke="none" 
	d="
M505.377319,802.458801 
	C507.451599,792.476379 514.474670,788.227478 523.864380,790.890503 
	C531.378113,793.021545 534.789551,802.362671 531.305725,811.266052 
	C528.406555,818.675232 519.784119,821.807251 512.134216,818.171753 
	C505.529938,815.033264 505.179962,809.052002 505.377319,802.458801 
M524.673706,809.612793 
	C524.855286,808.640503 525.145569,807.674194 525.199158,806.694885 
	C525.408386,802.874023 525.853149,798.659424 521.888916,796.565186 
	C520.210815,795.678650 516.178467,795.851807 515.628540,796.859619 
	C513.938721,799.956726 513.412476,803.689453 512.447083,807.178711 
	C512.407593,807.321350 512.448853,807.539917 512.538818,807.656860 
	C514.140869,809.740356 515.453247,813.038635 517.456726,813.534424 
	C519.349976,814.002808 521.972534,811.523621 524.673706,809.612793 
z"/>
<path fill="#0E0E0F" opacity="1.000000" stroke="none" 
	d="
M564.232544,804.096130 
	C563.811462,812.945679 560.786194,817.512512 554.626282,819.020630 
	C547.921204,820.662292 541.527588,818.445435 538.847595,813.549744 
	C535.539368,807.506470 536.467041,798.298401 540.827637,793.895752 
	C544.781372,789.903870 553.168335,789.025085 558.573547,792.152283 
	C562.991333,794.708191 563.988647,799.034119 564.232544,804.096130 
M544.263062,802.107178 
	C544.230164,803.921936 543.959595,805.770813 544.214294,807.544250 
	C544.727417,811.116150 546.397644,813.939575 550.487427,813.953064 
	C554.515503,813.966309 556.322571,811.297607 556.932251,807.687683 
	C557.177734,806.234192 557.181763,804.714661 557.099243,803.236145 
	C556.903259,799.722717 555.945923,796.497437 551.931274,795.786133 
	C547.707458,795.037903 545.483582,797.479309 544.263062,802.107178 
z"/>
<path fill="#0E0E0F" opacity="1.000000" stroke="none" 
	d="
M591.934021,795.613281 
	C588.719177,798.343506 590.381409,799.754700 592.802124,800.944092 
	C594.885620,801.967957 597.164612,802.698364 599.047852,804.004517 
	C603.992065,807.433899 603.932861,815.503052 598.425354,817.585632 
	C594.607361,819.029175 589.791077,818.300476 585.522034,817.753113 
	C584.458862,817.616821 583.787231,814.427246 582.552856,811.838135 
	C586.733337,812.831299 589.396301,813.817078 592.100586,813.947632 
	C593.329590,814.006897 594.640320,812.372864 595.913940,811.506958 
	C595.113525,810.375916 594.541077,808.897034 593.462585,808.190186 
	C591.538696,806.929260 588.852966,806.582947 587.325989,805.028625 
	C585.523743,803.194397 583.504150,800.425049 583.623901,798.169800 
	C583.746948,795.850708 585.859741,792.723450 587.966125,791.657288 
	C590.536621,790.356140 594.044861,790.399414 597.079224,790.659058 
	C600.451111,790.947571 601.945068,793.135315 600.604553,796.492493 
	C597.767273,796.118347 595.066345,795.762146 591.934021,795.613281 
z"/>
<path fill="#0E0E0F" opacity="1.000000" stroke="none" 
	d="
M494.994629,787.394226 
	C494.561401,792.926208 498.813507,789.750366 500.602600,791.101501 
	C502.274170,795.959167 502.274170,795.959167 494.925446,796.722168 
	C494.925446,801.086792 494.486206,805.587158 495.150299,809.918457 
	C495.401825,811.558960 498.197632,812.809387 500.321289,813.790466 
	C501.423737,815.686218 502.294220,818.162048 498.597473,819.073120 
	C493.994476,820.207336 489.806000,818.648193 488.826050,814.582092 
	C487.985504,811.094482 488.174255,807.349304 488.002960,803.713562 
	C487.901428,801.558289 487.984375,799.394348 487.014709,797.812744 
	C485.930695,796.373413 484.094177,794.980530 484.001740,793.480103 
	C483.928345,792.288696 485.989380,790.965820 487.840759,788.863220 
	C487.896362,788.190369 488.057648,786.238037 488.249939,783.910950 
	C490.859711,784.630920 494.737518,781.321838 494.994629,787.394226 
z"/>
<path fill="#0E0E0F" opacity="1.000000" stroke="none" 
	d="
M577.517822,806.969238 
	C577.517456,811.072632 577.517456,814.682739 577.517456,818.589600 
	C575.046204,818.589600 573.142517,818.589600 570.901245,818.589600 
	C570.901245,805.094299 570.901245,791.875854 570.901245,778.348022 
	C573.013550,778.348022 574.901794,778.348022 577.518127,778.348022 
	C577.518127,787.938782 577.518127,797.207397 577.517822,806.969238 
z"/>
<path fill="#0E0E0F" opacity="1.000000" stroke="none" 
	d="
M462.551849,780.457275 
	C463.410217,781.820740 464.252289,783.095215 464.266937,784.379089 
	C464.382416,794.494507 464.308350,804.611877 464.369354,814.728210 
	C464.383606,817.093933 464.349396,818.911499 461.092346,818.914429 
	C457.986206,818.917236 457.143555,817.722290 457.181122,814.769165 
	C457.307678,804.820129 457.362457,794.863892 457.101837,784.919373 
	C456.997406,780.934387 458.700867,779.924866 462.551849,780.457275 
z"/>
<path fill="#3670C7" opacity="1.000000" stroke="none" 
	d="
M619.313416,302.806702 
	C618.436096,302.014404 617.553833,301.547852 617.312561,300.857239 
	C616.767456,299.297638 616.539062,297.627289 616.181824,296.002014 
	C618.574402,296.671295 621.278015,296.893494 623.203918,298.233490 
	C623.957214,298.757629 622.964294,301.791565 622.766724,303.682373 
	C621.710938,303.465179 620.655212,303.247955 619.313416,302.806702 
z"/>
<path fill="#3670C7" opacity="1.000000" stroke="none" 
	d="
M690.873535,414.036285 
	C688.554932,418.921631 684.678589,416.632599 681.358154,416.384674 
	C681.228638,416.375000 681.327087,413.311096 681.319214,411.670288 
	C684.619019,411.741272 688.451660,409.220947 690.873535,414.036285 
z"/>
<path fill="#3670C7" opacity="1.000000" stroke="none" 
	d="
M510.810242,243.913605 
	C510.426025,241.503754 509.855530,239.274261 510.379211,237.341141 
	C510.673065,236.256226 512.776489,235.661469 514.064636,234.845871 
	C514.583130,237.400757 515.385803,239.954269 515.398132,242.511597 
	C515.400818,243.073425 512.594421,243.648788 510.810242,243.913605 
z"/>
<path fill="#3670C7" opacity="1.000000" stroke="none" 
	d="
M668.225098,405.306396 
	C667.802979,403.861389 667.238770,402.649109 667.453979,401.596100 
	C667.858887,399.614716 668.473022,396.211639 669.423035,396.060699 
	C673.442810,395.421844 672.288147,399.180634 672.674133,401.286987 
	C673.240784,404.378967 673.164673,407.439270 668.225098,405.306396 
z"/>
<path fill="#3670C7" opacity="1.000000" stroke="none" 
	d="
M586.572021,273.800171 
	C588.496704,274.787384 590.270752,275.459137 591.622070,276.622162 
	C592.402649,277.293976 592.933777,278.839081 592.747620,279.836273 
	C592.632263,280.454224 590.617432,281.429504 590.048889,281.127350 
	C587.636169,279.845123 585.445496,278.145142 583.173706,276.597778 
	C584.197205,275.628754 585.220642,274.659760 586.572021,273.800171 
z"/>
<path fill="#3670C7" opacity="1.000000" stroke="none" 
	d="
M636.169434,535.862793 
	C636.480652,537.685181 636.568420,539.226501 636.656250,540.767944 
	C635.107910,540.471252 633.442749,540.428833 632.051758,539.789734 
	C631.103088,539.353821 630.148376,538.180054 629.897583,537.163330 
	C629.571228,535.840576 629.940002,534.346313 630.009644,532.925903 
	C631.299072,533.093201 632.676636,533.038086 633.848267,533.502563 
	C634.690002,533.836243 635.256592,534.863770 636.169434,535.862793 
z"/>
<path fill="#3670C7" opacity="1.000000" stroke="none" 
	d="
M388.283936,538.896118 
	C389.807129,536.672852 391.139587,534.502747 393.031006,533.071106 
	C393.691223,532.571411 395.730011,533.893188 397.139221,534.383118 
	C395.632751,536.605408 394.318207,539.015869 392.468811,540.901855 
	C392.066803,541.311890 389.748596,539.843018 388.283936,538.896118 
z"/>
<path fill="#3670C7" opacity="1.000000" stroke="none" 
	d="
M535.470398,262.723938 
	C533.803162,262.528595 532.340393,262.653351 531.259033,262.070465 
	C529.944153,261.361725 528.950745,260.056763 527.818237,259.009705 
	C529.280457,258.355408 530.823914,257.036133 532.185791,257.202606 
	C534.231995,257.452667 536.151062,258.743744 538.124146,259.592163 
	C537.364014,260.638245 536.603943,261.684326 535.470398,262.723938 
z"/>
<path fill="#3670C7" opacity="1.000000" stroke="none" 
	d="
M336.914917,416.537231 
	C334.921356,414.564117 334.596466,412.227448 337.218201,411.866882 
	C339.764221,411.516754 342.537415,412.818298 345.210846,413.394531 
	C344.373871,414.527527 343.743164,416.286682 342.651428,416.646240 
	C341.030029,417.180267 339.082397,416.723877 336.914917,416.537231 
z"/>
<path fill="#3670C7" opacity="1.000000" stroke="none" 
	d="
M361.261108,416.691681 
	C360.547485,416.801178 360.203979,416.897430 359.887024,416.842010 
	C357.568787,416.436493 353.614990,418.208740 353.937225,413.873871 
	C354.237732,409.830658 358.061432,411.738647 360.405334,411.525970 
	C361.309357,411.443939 363.137634,412.522644 363.113403,412.999908 
	C363.051300,414.224365 362.187073,415.408142 361.261108,416.691681 
z"/>
<path fill="#3670C7" opacity="1.000000" stroke="none" 
	d="
M548.095703,264.856750 
	C546.212219,261.561127 547.508667,260.384399 550.614197,260.513641 
	C551.263123,260.540680 552.027527,260.648132 552.521912,261.012573 
	C554.147095,262.210663 555.672607,263.543945 557.236450,264.825287 
	C555.250610,265.189880 553.276062,265.693665 551.273804,265.857056 
	C550.351868,265.932251 549.375549,265.341064 548.095703,264.856750 
z"/>
<path fill="#3670C7" opacity="1.000000" stroke="none" 
	d="
M609.048828,287.929932 
	C609.632263,291.884644 607.838867,293.103271 605.044617,290.942047 
	C603.072876,289.416992 598.134399,288.319427 600.797791,284.664429 
	C603.175720,281.401184 605.425110,285.683228 607.702393,286.706116 
	C608.134583,286.900238 608.459839,287.332336 609.048828,287.929932 
z"/>
<path fill="#3670C7" opacity="1.000000" stroke="none" 
	d="
M666.477600,386.534454 
	C665.494995,383.945160 664.567322,381.609497 664.267883,379.195892 
	C664.162415,378.345642 665.435181,377.004395 666.399963,376.490997 
	C666.815002,376.270081 668.399658,377.395630 668.850098,378.233551 
	C671.331543,382.849792 670.475098,386.069092 666.477600,386.534454 
z"/>
<path fill="#3670C7" opacity="1.000000" stroke="none" 
	d="
M394.194122,283.681335 
	C395.076691,284.705444 396.011322,285.370087 396.283203,286.241455 
	C396.706604,287.598450 396.679901,289.095825 396.843964,290.533722 
	C395.321564,290.206818 393.687744,290.116974 392.315002,289.471680 
	C391.359711,289.022675 390.455322,287.923035 390.086273,286.910645 
	C389.654449,285.726105 389.828705,284.320648 389.740051,283.011017 
	C391.143066,283.145538 392.546112,283.280060 394.194122,283.681335 
z"/>
<path fill="#3670C7" opacity="1.000000" stroke="none" 
	d="
M635.573181,286.488342 
	C634.553284,287.614868 633.922119,288.805817 632.949280,289.252350 
	C631.793457,289.782928 630.343689,289.673401 629.021301,289.841278 
	C629.008240,288.537201 628.595154,287.050629 629.085327,285.976105 
	C629.673035,284.687744 630.881897,283.517090 632.103760,282.737366 
	C633.041138,282.139221 634.415588,282.226044 635.595642,282.008240 
	C635.667358,283.413239 635.739075,284.818237 635.573181,286.488342 
z"/>
<path fill="#3670C7" opacity="1.000000" stroke="none" 
	d="
M664.146484,367.488831 
	C660.860657,367.067444 657.306641,361.617920 658.769958,359.411316 
	C659.297424,358.615906 662.523682,358.519012 662.560059,358.649567 
	C663.350708,361.484070 663.864258,364.395905 664.146484,367.488831 
z"/>
<path fill="#3670C7" opacity="1.000000" stroke="none" 
	d="
M405.290283,303.800903 
	C404.175018,302.559265 402.979462,301.681396 402.592529,300.531433 
	C402.267609,299.565735 402.638580,297.457520 403.135559,297.309143 
	C404.234833,296.980927 406.102448,297.127167 406.765503,297.872589 
	C408.159851,299.440125 408.980438,301.517975 410.036530,303.386383 
	C408.544495,303.606506 407.052429,303.826630 405.290283,303.800903 
z"/>
<path fill="#3670C7" opacity="1.000000" stroke="none" 
	d="
M574.876709,272.183289 
	C571.891663,271.755219 569.077332,271.201538 566.451416,270.168732 
	C565.999695,269.991058 566.349792,267.774872 566.329529,266.500366 
	C568.634583,266.953522 571.104797,267.050720 573.174683,268.010925 
	C574.200195,268.486664 574.489014,270.550415 574.876709,272.183289 
z"/>
<path fill="#3670C7" opacity="1.000000" stroke="none" 
	d="
M652.005554,346.205109 
	C651.052673,343.980042 649.098267,341.684845 652.328796,340.629700 
	C653.259155,340.325836 655.599854,342.331818 656.266235,343.758759 
	C657.023438,345.380096 656.628479,347.539459 656.734375,349.464966 
	C655.202026,348.492401 653.669739,347.519867 652.005554,346.205109 
z"/>
<path fill="#3670C7" opacity="1.000000" stroke="none" 
	d="
M625.158691,524.025391 
	C623.794067,524.966187 621.630432,526.458435 621.180786,526.052429 
	C619.454407,524.493530 618.277588,522.325928 616.895752,520.385437 
	C618.310303,519.846375 620.275696,518.455261 621.027588,518.941284 
	C622.719971,520.035217 623.811035,522.059387 625.158691,524.025391 
z"/>
<path fill="#3670C7" opacity="1.000000" stroke="none" 
	d="
M645.514160,325.324951 
	C646.639465,327.747559 647.575195,329.875824 648.306335,332.072235 
	C648.351135,332.206757 646.233459,333.413727 646.042358,333.218903 
	C644.371277,331.515106 642.758484,329.703461 641.467224,327.704865 
	C641.005981,326.990936 641.473694,325.676880 641.517334,324.636749 
	C642.771057,324.773132 644.024719,324.909515 645.514160,325.324951 
z"/>
<path fill="#3670C7" opacity="1.000000" stroke="none" 
	d="
M402.425659,521.525146 
	C403.591309,520.314148 404.395905,519.164307 405.497803,518.534546 
	C406.147522,518.163269 407.939941,518.392090 408.055878,518.739197 
	C408.459503,519.948059 408.941803,521.948059 408.333282,522.521484 
	C406.626770,524.129639 404.390625,525.175598 402.363403,526.443359 
	C402.305450,524.897156 402.247498,523.351074 402.425659,521.525146 
z"/>
<path fill="#3670C7" opacity="1.000000" stroke="none" 
	d="
M517.421265,256.675537 
	C517.467529,258.145752 517.244751,260.590759 516.913574,260.605530 
	C514.901428,260.695343 512.587646,260.698914 510.963776,259.736847 
	C510.251373,259.314789 510.248810,255.989182 511.102264,254.945999 
	C513.776917,251.676758 514.955811,256.344666 517.421265,256.675537 
z"/>
<path fill="#3670C7" opacity="1.000000" stroke="none" 
	d="
M633.580933,310.185974 
	C634.976746,312.464874 636.151611,314.473938 637.134338,316.572968 
	C637.214355,316.743805 635.567749,318.062653 635.420654,317.948608 
	C633.525024,316.479065 631.617981,314.969513 630.027161,313.190002 
	C629.437805,312.530853 629.666443,311.140503 629.521973,310.083618 
	C630.784790,310.035553 632.047546,309.987488 633.580933,310.185974 
z"/>
<path fill="#3670C7" opacity="1.000000" stroke="none" 
	d="
M672.480225,411.808350 
	C673.351868,414.978668 672.372681,416.824127 669.281677,416.183655 
	C668.289856,415.978119 666.808472,413.842377 667.015869,412.918671 
	C667.742065,409.684967 670.021179,410.210480 672.480225,411.808350 
z"/>
<path fill="#FDFDFD" opacity="1.000000" stroke="none" 
	d="
M618.058167,340.985992 
	C651.236450,387.058228 650.491211,450.409760 613.278259,498.465271 
	C600.378906,515.122925 588.243103,532.219360 582.642822,552.914795 
	C580.651917,560.272156 579.232422,567.822388 578.115051,575.367981 
	C576.775513,584.414246 571.636536,589.575195 562.529846,589.595764 
	C529.544800,589.670288 496.559326,589.676392 463.574219,589.609253 
	C454.284485,589.590332 448.845673,584.730530 447.868713,575.641663 
	C445.308228,551.820496 435.979858,530.699646 421.984039,511.584290 
	C411.457428,497.207153 400.716522,483.128906 393.739166,466.441833 
	C360.197815,386.224030 412.626587,296.744904 499.171387,288.316071 
	C548.010742,283.559479 587.722595,301.868469 618.058167,340.985992 
M594.421143,485.279114 
	C600.299438,487.234100 604.413940,486.416656 607.489319,482.486115 
	C610.468201,478.678833 610.714417,474.484375 608.415894,470.318085 
	C606.112854,466.143585 602.304260,463.487213 597.683472,464.983856 
	C593.723450,466.266449 591.627258,464.667419 589.593018,462.203888 
	C585.227722,456.917511 579.912354,454.375305 572.956238,455.374207 
	C570.561401,455.718140 568.075684,455.428925 565.484192,455.428925 
	C565.484192,452.545105 565.484192,450.313690 565.484192,447.550140 
	C574.757385,447.550140 583.733643,447.385132 592.694641,447.681854 
	C594.611572,447.745331 596.943420,449.057098 598.275024,450.526855 
	C602.884827,455.615082 609.355835,456.347839 614.205688,451.911743 
	C618.796387,447.712708 618.658508,440.222534 613.911438,435.926788 
	C609.130127,431.600037 602.429382,432.376831 598.096191,437.630951 
	C597.245178,438.662872 595.932312,439.993988 594.809937,440.015564 
	C585.038025,440.203247 575.260925,440.123840 565.472656,440.123840 
	C565.472656,437.146820 565.472656,434.781006 565.472656,432.176025 
	C570.681946,432.176025 575.499451,432.260345 580.311951,432.143585 
	C583.084290,432.076355 587.120483,433.405487 587.132324,428.700745 
	C587.144775,423.773071 582.982605,424.988220 580.007385,424.931030 
	C575.079407,424.836334 570.148193,424.905273 565.305603,424.905273 
	C565.305603,421.925385 565.305603,419.657562 565.305603,417.045990 
	C573.556030,417.045990 581.516418,417.117645 589.474548,417.014862 
	C593.285583,416.965637 596.375977,417.153290 599.265015,420.747192 
	C603.322144,425.794250 610.909241,424.951263 615.013062,419.918671 
	C618.890442,415.163849 617.995972,408.004089 613.077576,404.426483 
	C608.182739,400.866028 601.218689,402.136749 597.707825,407.141632 
	C597.013123,408.131958 595.967712,409.592499 595.062012,409.608765 
	C585.146240,409.786316 575.226074,409.720032 565.359863,409.720032 
	C565.359863,406.614014 565.359863,404.349091 565.359863,401.979279 
	C566.262390,401.822388 566.912354,401.561096 567.528992,401.624420 
	C576.859741,402.582703 585.395874,401.598358 591.449402,393.081482 
	C592.137390,392.113525 594.723022,391.981598 596.297607,392.245209 
	C603.167114,393.395325 608.960693,389.558777 609.784180,383.027283 
	C610.514343,377.236053 606.034119,371.663971 600.196655,371.103302 
	C593.920593,370.500519 588.914001,375.243927 588.267700,381.900299 
	C588.067932,383.957825 586.942505,386.065796 585.795349,387.866882 
	C580.710449,395.850342 572.927368,394.307343 565.397217,393.677612 
	C564.014893,381.816132 561.102417,378.897614 548.077515,376.417267 
	C548.077515,374.365173 547.828674,372.193237 548.132812,370.101776 
	C548.657654,366.492218 548.451050,362.064240 550.487183,359.543152 
	C554.097473,355.072998 557.494995,349.700684 565.307739,350.716797 
	C570.793884,351.430267 575.325684,344.991394 574.679810,339.429016 
	C573.978271,333.386505 568.754211,329.003082 562.934387,329.573761 
	C557.139771,330.141907 552.534729,335.328796 553.715332,340.977081 
	C554.475647,344.614929 553.176208,346.576385 550.777405,348.661377 
	C548.643311,350.516327 546.827271,352.740723 544.669739,354.564117 
	C541.750671,357.031128 540.641479,359.959595 540.909668,363.786072 
	C541.208435,368.049469 540.978210,372.349945 540.978210,376.767639 
	C537.947754,376.767639 535.534058,376.767639 532.638611,376.767639 
	C532.638611,368.227203 532.545044,359.940430 532.749634,351.661041 
	C532.777161,350.548096 534.115540,349.214813 535.175049,348.422394 
	C540.797729,344.217285 542.078613,337.784180 538.130737,332.819305 
	C534.296082,327.996887 526.931091,327.348083 522.584473,331.449951 
	C517.702393,336.057129 517.972473,342.537781 523.163635,347.713074 
	C524.027649,348.574402 525.102966,349.780029 525.122620,350.844238 
	C525.281738,359.450714 525.211914,368.061401 525.211914,376.719788 
	C521.797729,376.719788 519.089844,376.719788 516.122131,376.719788 
	C516.122131,371.694946 516.455261,367.013550 515.951355,362.424042 
	C515.760742,360.687592 513.831055,358.032959 512.355347,357.781067 
	C509.420197,357.280029 508.790802,359.873871 508.841278,362.506256 
	C508.932770,367.275665 508.867218,372.048035 508.867218,376.745056 
	C505.723877,376.745056 503.314056,376.745056 500.537323,376.745056 
	C500.537323,368.891907 500.316223,361.397430 500.668701,353.930023 
	C500.777985,351.614532 501.954041,348.944824 503.493103,347.179504 
	C507.620911,342.444855 507.636475,335.674133 503.021423,331.491364 
	C498.490814,327.385101 491.252533,328.061401 487.531372,332.938629 
	C483.761902,337.879181 485.031891,344.416321 490.377441,348.191223 
	C491.473724,348.965363 493.040192,350.157562 493.066986,351.191284 
	C493.285522,359.632965 493.190002,368.082764 493.190002,376.603058 
	C490.167572,376.603058 487.643311,376.603058 484.924835,376.603058 
	C484.924835,374.048706 484.919891,371.890137 484.926147,369.731567 
	C484.932922,367.398529 485.172699,365.038483 484.893433,362.740906 
	C484.664062,360.853607 484.300476,358.643555 483.159729,357.272888 
	C480.321747,353.862946 476.822418,351.004517 473.971588,347.603668 
	C472.803955,346.210785 471.985260,343.947632 472.106018,342.154327 
	C472.581604,335.091766 468.409271,329.678619 461.830200,329.428162 
	C455.810425,329.199005 450.739288,334.446716 450.986023,340.650024 
	C451.247009,347.212433 456.773499,351.567261 463.740448,350.858856 
	C465.051392,350.725555 466.748779,350.772522 467.719849,351.484100 
	C476.258148,357.740875 480.131927,365.820709 477.159546,375.267395 
	C472.532166,377.511780 467.761261,378.594849 464.925018,381.540649 
	C461.968567,384.611237 460.877594,389.477966 458.695526,394.149200 
	C458.196655,394.149200 456.879944,394.138580 455.563446,394.150879 
	C443.110199,394.267273 439.505035,391.379303 437.040710,379.305603 
	C435.939240,373.909180 430.689819,370.341034 425.067200,371.166962 
	C419.275299,372.017700 415.365265,377.097687 415.989075,382.961456 
	C416.564697,388.372833 421.874207,393.645752 426.970612,392.198242 
	C432.809631,390.539856 435.634552,393.502716 438.591553,397.032776 
	C441.598663,400.622559 445.091705,402.383423 449.882477,401.890228 
	C453.269104,401.541595 456.720581,401.822754 460.064636,401.822754 
	C460.064636,404.902710 460.064636,407.153625 460.064636,409.937347 
	C450.752777,409.937347 441.780945,410.103943 432.824860,409.802704 
	C430.937744,409.739258 428.623566,408.378967 427.340363,406.894897 
	C422.954987,401.822906 416.183929,400.981506 411.442291,405.327240 
	C406.957977,409.437134 406.928741,416.642181 411.378845,420.962524 
	C416.014435,425.462952 422.830017,424.953186 427.229034,419.850830 
	C428.145599,418.787750 429.307526,417.156128 430.384888,417.133301 
	C440.308289,416.923187 450.237976,417.009460 460.255188,417.009460 
	C460.255188,420.061615 460.255188,422.303223 460.255188,425.039459 
	C454.292542,425.039459 448.638855,424.788788 443.033661,425.199463 
	C441.448792,425.315582 440.005554,427.364777 438.497314,428.527374 
	C439.956757,429.778961 441.300568,431.895233 442.898804,432.108917 
	C446.658264,432.611633 450.539215,432.178558 454.371033,432.173889 
	C461.245514,432.165497 461.474609,432.488617 459.869690,440.078613 
	C450.161133,440.078613 440.359650,440.141815 430.561829,439.982697 
	C429.561707,439.966461 428.386749,438.778595 427.626862,437.858612 
	C423.093628,432.370026 416.834198,431.542664 411.904968,435.890106 
	C407.208710,440.032074 407.033752,447.524109 411.530518,451.927307 
	C416.056396,456.359070 422.663452,455.641022 427.328461,450.296936 
	C428.250885,449.240265 429.456757,447.672913 430.559174,447.649963 
	C440.472321,447.443451 450.391602,447.529297 460.339294,447.529297 
	C460.339294,450.626709 460.339294,452.835205 460.339294,455.249573 
	C457.305969,455.388275 454.617889,455.867065 452.022736,455.559998 
	C445.477570,454.785553 440.292969,456.828308 436.465790,462.185608 
	C434.094391,465.505035 430.934082,465.242035 427.314423,464.960297 
	C420.836823,464.456085 416.018890,469.325073 416.072968,475.592377 
	C416.123535,481.451874 420.685181,486.189209 426.395599,486.312561 
	C432.724854,486.449280 437.113434,481.788879 437.409912,475.289459 
	C437.509705,473.101746 438.621948,470.758026 439.849396,468.859192 
	C445.009888,460.876190 452.868378,462.851135 460.608948,463.300812 
	C460.362305,474.836761 466.903992,479.598389 477.310120,480.357758 
	C477.391296,481.986816 477.633240,483.324066 477.489899,484.618683 
	C477.044830,488.638489 477.782928,493.693573 475.626221,496.420593 
	C471.811279,501.244354 468.174957,507.120270 459.797913,506.325104 
	C454.307983,505.804016 450.346252,512.241150 450.977386,518.099731 
	C451.597046,523.851990 456.831848,528.190125 462.452972,527.609680 
	C468.144531,527.021973 472.958160,521.898071 471.898193,516.257751 
	C471.100983,512.015564 472.639435,509.735474 475.507050,507.397308 
	C477.437653,505.823151 479.025116,503.828003 480.956635,502.255188 
	C484.063171,499.725525 485.272705,496.663086 484.962097,492.638092 
	C484.645966,488.541840 484.892181,484.402161 484.892181,480.243042 
	C487.994507,480.243042 490.524445,480.243042 493.286102,480.243042 
	C493.286102,488.142792 493.489105,495.641602 493.143738,503.115112 
	C493.057098,504.990448 491.622314,507.296967 490.097687,508.523315 
	C484.711029,512.856140 483.526306,519.779968 487.725403,524.809631 
	C491.486633,529.314819 498.445374,529.784302 502.929260,525.835388 
	C507.707397,521.627319 507.761841,514.866882 503.110413,509.877075 
	C502.243866,508.947510 500.924316,507.853668 500.903839,506.814148 
	C500.728058,497.884857 500.802856,488.950684 500.802856,480.114899 
	C503.856506,480.114899 506.120941,480.114899 508.826630,480.114899 
	C508.826630,485.207092 508.865143,490.005402 508.811646,494.802673 
	C508.781464,497.506226 509.005768,500.117401 512.528198,500.009338 
	C515.815063,499.908447 516.397095,497.468170 516.369263,494.697174 
	C516.321350,489.911987 516.356018,485.125977 516.356018,480.181610 
	C519.478333,480.181610 522.031006,480.181610 524.990540,480.181610 
	C524.990540,487.315063 524.944641,494.119507 525.008362,500.922913 
	C525.044312,504.768341 524.743652,508.059875 521.605469,511.233368 
	C517.347229,515.539490 518.542419,522.559937 523.231018,526.293396 
	C527.746399,529.889160 534.322083,529.276550 538.074768,524.910583 
	C541.824951,520.547668 541.892273,513.225769 537.035583,510.273651 
	C532.294067,507.391510 532.352295,503.727722 532.409668,499.394714 
	C532.494446,492.992157 532.431580,486.587646 532.431580,479.899353 
	C534.888000,479.899353 536.540222,479.874542 538.191101,479.910156 
	C538.981750,479.927155 539.769958,480.058563 540.785767,480.160980 
	C540.869080,481.192047 541.110352,482.024506 540.971863,482.788055 
	C538.966980,493.842560 542.674744,502.414612 551.642639,509.154327 
	C553.099792,510.249451 553.591431,513.412537 553.533569,515.593323 
	C553.360413,522.123657 557.958740,527.716309 564.087830,527.801147 
	C570.182678,527.885437 575.287354,522.671265 575.056763,516.596985 
	C574.812134,510.154297 569.633606,505.627533 563.034363,506.027588 
	C561.771240,506.104187 560.271118,506.378662 559.258850,505.844513 
	C550.142456,501.034119 546.040222,490.668945 548.508118,481.832184 
	C553.402649,479.392395 558.104187,478.243835 560.940002,475.298737 
	C563.768311,472.361511 564.726379,467.623505 566.817871,462.979004 
	C569.797058,462.979004 573.778503,462.846741 577.747192,463.015930 
	C581.772827,463.187561 588.429443,470.744995 588.420776,474.821686 
	C588.411682,479.119690 590.032593,482.588470 594.421143,485.279114 
z"/>
<path fill="#FDFDFD" opacity="1.000000" stroke="none" 
	d="
M527.000000,597.792114 
	C540.472656,597.792542 553.445312,597.792542 567.190247,597.792542 
	C567.190247,602.072205 567.488098,606.192322 566.990356,610.213928 
	C566.858337,611.280762 564.354675,612.670227 562.814514,612.852722 
	C544.644470,615.005981 526.447815,616.932739 508.263824,618.970337 
	C491.838837,620.810974 475.420990,622.714905 458.525238,624.645203 
	C458.525238,615.657288 458.525238,607.119812 458.525238,597.791748 
	C481.070496,597.791748 503.785248,597.791748 527.000000,597.792114 
z"/>
<path fill="#FDFDFD" opacity="1.000000" stroke="none" 
	d="
M500.753479,640.815308 
	C486.436249,642.369202 472.571045,643.884949 458.353638,645.439209 
	C458.353638,640.986389 458.353638,637.062195 458.353638,632.613159 
	C494.301117,628.634460 530.286621,624.651611 567.146729,620.571899 
	C567.146729,624.417725 567.401733,627.865356 566.988892,631.231018 
	C566.867493,632.220276 564.925842,633.604004 563.695312,633.746887 
	C544.691223,635.953247 525.666504,637.981079 506.647766,640.061890 
	C504.829346,640.260925 503.019379,640.536926 500.753479,640.815308 
z"/>
<path fill="#FDFDFD" opacity="1.000000" stroke="none" 
	d="
M514.338989,658.193359 
	C498.090729,660.027039 482.295380,661.842834 466.489502,663.561462 
	C462.931458,663.948364 460.160736,660.352417 458.808228,653.534119 
	C494.747406,649.479431 530.637573,645.430237 566.828369,641.347168 
	C566.828369,645.094971 566.828369,648.529419 566.828369,652.383179 
	C549.435059,654.307373 532.111572,656.223816 514.338989,658.193359 
z"/>
<path fill="#FDFDFD" opacity="1.000000" stroke="none" 
	d="
M517.000000,675.078064 
	C506.515137,675.085083 496.522949,675.315308 486.549133,674.987183 
	C482.793121,674.863647 479.079681,673.446167 475.346802,672.618591 
	C475.412567,672.028748 475.478302,671.438904 475.544037,670.849060 
	C504.641724,667.506714 533.739441,664.164368 563.930054,660.696533 
	C562.607239,662.458496 562.047424,663.593201 561.157593,664.328308 
	C553.550171,670.612488 545.961548,676.618713 534.957703,675.238403 
	C529.222046,674.518982 523.324463,675.090698 517.000000,675.078064 
z"/>
<path fill="#FDFDFD" opacity="1.000000" stroke="none" 
	d="
M529.271423,692.446167 
	C512.384277,699.503113 494.648102,695.750793 487.056946,683.427612 
	C504.295990,683.427612 521.294006,683.427612 538.993042,683.427612 
	C536.991821,687.769897 533.547791,690.254517 529.271423,692.446167 
z"/>
<path fill="#FDFDFD" opacity="1.000000" stroke="none" 
	d="
M436.081421,793.035828 
	C437.330750,796.816711 438.475800,800.229553 439.736420,803.986816 
	C435.798981,803.986816 432.504547,803.986816 428.670197,803.986816 
	C430.523956,798.589844 432.271088,793.503235 434.272278,787.677002 
	C435.038086,789.918762 435.507629,791.293274 436.081421,793.035828 
z"/>
<path fill="#FDFDFD" opacity="1.000000" stroke="none" 
	d="
M708.337524,419.581512 
	C705.295837,415.185181 705.304993,411.106323 708.690247,407.437073 
	C711.630127,404.250519 715.428772,403.889160 719.222534,405.656708 
	C723.426270,407.615265 724.602966,411.354614 724.023560,415.672760 
	C723.145142,422.219604 714.349182,425.922791 708.337524,419.581512 
z"/>
<path fill="#FDFDFD" opacity="1.000000" stroke="none" 
	d="
M302.931335,418.969177 
	C300.480316,414.671600 300.687592,410.468567 304.063812,407.767944 
	C306.327942,405.956879 310.471954,404.654663 312.984222,405.493286 
	C315.703674,406.401093 318.405701,409.724243 319.480896,412.604187 
	C320.864258,416.309326 318.647308,419.828522 315.161346,421.756622 
	C310.614685,424.271362 306.516754,423.153320 302.931335,418.969177 
z"/>
<path fill="#FDFDFD" opacity="1.000000" stroke="none" 
	d="
M520.102173,215.923920 
	C516.768616,219.810501 512.978821,220.792755 508.714294,218.701935 
	C505.063141,216.911865 503.475281,213.681152 503.773346,209.679352 
	C504.073364,205.651016 506.263977,202.851944 510.072449,201.523590 
	C513.747742,200.241684 517.081970,201.195938 519.548767,204.086975 
	C522.565125,207.622192 522.794678,211.582901 520.102173,215.923920 
z"/>
<path fill="#FDFDFD" opacity="1.000000" stroke="none" 
	d="
M645.978516,553.257812 
	C651.313538,548.247192 657.837341,549.316895 658.733826,555.355713 
	C659.115173,557.924683 657.760559,561.824158 655.811401,563.340088 
	C654.135315,564.643677 650.024109,564.292358 647.823608,563.114563 
	C644.117188,561.130737 643.971497,557.331726 645.978516,553.257812 
z"/>
<path fill="#FDFDFD" opacity="1.000000" stroke="none" 
	d="
M658.853760,268.422668 
	C656.932983,272.739807 653.578003,274.379395 649.847656,272.855530 
	C647.691162,271.974579 645.472900,269.281891 644.867188,266.986420 
	C643.695068,262.544281 647.214355,258.750061 651.636047,258.670990 
	C656.642273,258.581543 659.216736,261.866821 658.853760,268.422668 
z"/>
<path fill="#FDFDFD" opacity="1.000000" stroke="none" 
	d="
M370.990051,550.673218 
	C377.981018,549.498474 383.081238,553.544617 381.168457,558.860046 
	C380.277313,561.336365 377.369873,563.910034 374.816132,564.763855 
	C371.357605,565.920105 368.337708,563.672424 367.027588,560.142090 
	C365.529846,556.106323 367.063965,553.022400 370.990051,550.673218 
z"/>
<path fill="#FDFDFD" opacity="1.000000" stroke="none" 
	d="
M369.384796,260.189819 
	C372.783569,260.072693 376.268372,259.399658 378.797028,260.654114 
	C380.409729,261.454163 381.759491,265.480316 381.144653,267.389282 
	C380.382874,269.754486 377.692291,272.630249 375.417053,273.056946 
	C373.155487,273.481049 369.648804,271.773651 367.991852,269.867645 
	C365.442657,266.935272 366.438507,263.350708 369.384796,260.189819 
z"/>
<path fill="#FDFDFD" opacity="1.000000" stroke="none" 
	d="
M524.473999,809.976868 
	C521.972534,811.523621 519.349976,814.002808 517.456726,813.534424 
	C515.453247,813.038635 514.140869,809.740356 512.538818,807.656860 
	C512.448853,807.539917 512.407593,807.321350 512.447083,807.178711 
	C513.412476,803.689453 513.938721,799.956726 515.628540,796.859619 
	C516.178467,795.851807 520.210815,795.678650 521.888916,796.565186 
	C525.853149,798.659424 525.408386,802.874023 525.199158,806.694885 
	C525.145569,807.674194 524.855286,808.640503 524.473999,809.976868 
z"/>
<path fill="#FDFDFD" opacity="1.000000" stroke="none" 
	d="
M544.358154,801.706421 
	C545.483582,797.479309 547.707458,795.037903 551.931274,795.786133 
	C555.945923,796.497437 556.903259,799.722717 557.099243,803.236145 
	C557.181763,804.714661 557.177734,806.234192 556.932251,807.687683 
	C556.322571,811.297607 554.515503,813.966309 550.487427,813.953064 
	C546.397644,813.939575 544.727417,811.116150 544.214294,807.544250 
	C543.959595,805.770813 544.230164,803.921936 544.358154,801.706421 
z"/>
<path fill="#3670C7" opacity="1.000000" stroke="none" 
	d="
M594.084717,485.109375 
	C590.032593,482.588470 588.411682,479.119690 588.420776,474.821686 
	C588.429443,470.744995 581.772827,463.187561 577.747192,463.015930 
	C573.778503,462.846741 569.797058,462.979004 566.817871,462.979004 
	C564.726379,467.623505 563.768311,472.361511 560.940002,475.298737 
	C558.104187,478.243835 553.402649,479.392395 548.508118,481.832184 
	C546.040222,490.668945 550.142456,501.034119 559.258850,505.844513 
	C560.271118,506.378662 561.771240,506.104187 563.034363,506.027588 
	C569.633606,505.627533 574.812134,510.154297 575.056763,516.596985 
	C575.287354,522.671265 570.182678,527.885437 564.087830,527.801147 
	C557.958740,527.716309 553.360413,522.123657 553.533569,515.593323 
	C553.591431,513.412537 553.099792,510.249451 551.642639,509.154327 
	C542.674744,502.414612 538.966980,493.842560 540.971863,482.788055 
	C541.110352,482.024506 540.869080,481.192047 540.785767,480.160980 
	C539.769958,480.058563 538.981750,479.927155 538.191101,479.910156 
	C536.540222,479.874542 534.888000,479.899353 532.431580,479.899353 
	C532.431580,486.587646 532.494446,492.992157 532.409668,499.394714 
	C532.352295,503.727722 532.294067,507.391510 537.035583,510.273651 
	C541.892273,513.225769 541.824951,520.547668 538.074768,524.910583 
	C534.322083,529.276550 527.746399,529.889160 523.231018,526.293396 
	C518.542419,522.559937 517.347229,515.539490 521.605469,511.233368 
	C524.743652,508.059875 525.044312,504.768341 525.008362,500.922913 
	C524.944641,494.119507 524.990540,487.315063 524.990540,480.181610 
	C522.031006,480.181610 519.478333,480.181610 516.356018,480.181610 
	C516.356018,485.125977 516.321350,489.911987 516.369263,494.697174 
	C516.397095,497.468170 515.815063,499.908447 512.528198,500.009338 
	C509.005768,500.117401 508.781464,497.506226 508.811646,494.802673 
	C508.865143,490.005402 508.826630,485.207092 508.826630,480.114899 
	C506.120941,480.114899 503.856506,480.114899 500.802856,480.114899 
	C500.802856,488.950684 500.728058,497.884857 500.903839,506.814148 
	C500.924316,507.853668 502.243866,508.947510 503.110413,509.877075 
	C507.761841,514.866882 507.707397,521.627319 502.929260,525.835388 
	C498.445374,529.784302 491.486633,529.314819 487.725403,524.809631 
	C483.526306,519.779968 484.711029,512.856140 490.097687,508.523315 
	C491.622314,507.296967 493.057098,504.990448 493.143738,503.115112 
	C493.489105,495.641602 493.286102,488.142792 493.286102,480.243042 
	C490.524445,480.243042 487.994507,480.243042 484.892181,480.243042 
	C484.892181,484.402161 484.645966,488.541840 484.962097,492.638092 
	C485.272705,496.663086 484.063171,499.725525 480.956635,502.255188 
	C479.025116,503.828003 477.437653,505.823151 475.507050,507.397308 
	C472.639435,509.735474 471.100983,512.015564 471.898193,516.257751 
	C472.958160,521.898071 468.144531,527.021973 462.452972,527.609680 
	C456.831848,528.190125 451.597046,523.851990 450.977386,518.099731 
	C450.346252,512.241150 454.307983,505.804016 459.797913,506.325104 
	C468.174957,507.120270 471.811279,501.244354 475.626221,496.420593 
	C477.782928,493.693573 477.044830,488.638489 477.489899,484.618683 
	C477.633240,483.324066 477.391296,481.986816 477.310120,480.357758 
	C466.903992,479.598389 460.362305,474.836761 460.608948,463.300812 
	C452.868378,462.851135 445.009888,460.876190 439.849396,468.859192 
	C438.621948,470.758026 437.509705,473.101746 437.409912,475.289459 
	C437.113434,481.788879 432.724854,486.449280 426.395599,486.312561 
	C420.685181,486.189209 416.123535,481.451874 416.072968,475.592377 
	C416.018890,469.325073 420.836823,464.456085 427.314423,464.960297 
	C430.934082,465.242035 434.094391,465.505035 436.465790,462.185608 
	C440.292969,456.828308 445.477570,454.785553 452.022736,455.559998 
	C454.617889,455.867065 457.305969,455.388275 460.339294,455.249573 
	C460.339294,452.835205 460.339294,450.626709 460.339294,447.529297 
	C450.391602,447.529297 440.472321,447.443451 430.559174,447.649963 
	C429.456757,447.672913 428.250885,449.240265 427.328461,450.296936 
	C422.663452,455.641022 416.056396,456.359070 411.530518,451.927307 
	C407.033752,447.524109 407.208710,440.032074 411.904968,435.890106 
	C416.834198,431.542664 423.093628,432.370026 427.626862,437.858612 
	C428.386749,438.778595 429.561707,439.966461 430.561829,439.982697 
	C440.359650,440.141815 450.161133,440.078613 459.869690,440.078613 
	C461.474609,432.488617 461.245514,432.165497 454.371033,432.173889 
	C450.539215,432.178558 446.658264,432.611633 442.898804,432.108917 
	C441.300568,431.895233 439.956757,429.778961 438.497314,428.527405 
	C440.005554,427.364777 441.448792,425.315582 443.033661,425.199463 
	C448.638855,424.788788 454.292542,425.039459 460.255188,425.039459 
	C460.255188,422.303223 460.255188,420.061615 460.255188,417.009460 
	C450.237976,417.009460 440.308289,416.923187 430.384888,417.133301 
	C429.307526,417.156128 428.145599,418.787750 427.229034,419.850830 
	C422.830017,424.953186 416.014435,425.462952 411.378845,420.962524 
	C406.928741,416.642181 406.957977,409.437134 411.442291,405.327240 
	C416.183929,400.981506 422.954987,401.822906 427.340363,406.894897 
	C428.623566,408.378967 430.937744,409.739258 432.824860,409.802704 
	C441.780945,410.103943 450.752777,409.937347 460.064636,409.937347 
	C460.064636,407.153625 460.064636,404.902710 460.064636,401.822754 
	C456.720581,401.822754 453.269104,401.541595 449.882477,401.890228 
	C445.091705,402.383423 441.598663,400.622559 438.591553,397.032776 
	C435.634552,393.502716 432.809631,390.539856 426.970612,392.198242 
	C421.874207,393.645752 416.564697,388.372833 415.989075,382.961456 
	C415.365265,377.097687 419.275299,372.017700 425.067200,371.166962 
	C430.689819,370.341034 435.939240,373.909180 437.040710,379.305603 
	C439.505035,391.379303 443.110199,394.267273 455.563446,394.150879 
	C456.879944,394.138580 458.196655,394.149200 458.695526,394.149200 
	C460.877594,389.477966 461.968567,384.611237 464.925018,381.540649 
	C467.761261,378.594849 472.532166,377.511780 477.159546,375.267395 
	C480.131927,365.820709 476.258148,357.740875 467.719849,351.484100 
	C466.748779,350.772522 465.051392,350.725555 463.740448,350.858856 
	C456.773499,351.567261 451.247009,347.212433 450.986023,340.650024 
	C450.739288,334.446716 455.810425,329.199005 461.830200,329.428162 
	C468.409271,329.678619 472.581604,335.091766 472.106018,342.154327 
	C471.985260,343.947632 472.803955,346.210785 473.971588,347.603668 
	C476.822418,351.004517 480.321747,353.862946 483.159729,357.272888 
	C484.300476,358.643555 484.664062,360.853607 484.893433,362.740906 
	C485.172699,365.038483 484.932922,367.398529 484.926147,369.731567 
	C484.919891,371.890137 484.924835,374.048706 484.924835,376.603058 
	C487.643311,376.603058 490.167572,376.603058 493.190002,376.603058 
	C493.190002,368.082764 493.285522,359.632965 493.066986,351.191284 
	C493.040192,350.157562 491.473724,348.965363 490.377441,348.191223 
	C485.031891,344.416321 483.761902,337.879181 487.531372,332.938629 
	C491.252533,328.061401 498.490814,327.385101 503.021423,331.491364 
	C507.636475,335.674133 507.620911,342.444855 503.493103,347.179504 
	C501.954041,348.944824 500.777985,351.614532 500.668701,353.930023 
	C500.316223,361.397430 500.537323,368.891907 500.537323,376.745056 
	C503.314056,376.745056 505.723877,376.745056 508.867218,376.745056 
	C508.867218,372.048035 508.932770,367.275665 508.841278,362.506256 
	C508.790802,359.873871 509.420197,357.280029 512.355347,357.781067 
	C513.831055,358.032959 515.760742,360.687592 515.951355,362.424042 
	C516.455261,367.013550 516.122131,371.694946 516.122131,376.719788 
	C519.089844,376.719788 521.797729,376.719788 525.211914,376.719788 
	C525.211914,368.061401 525.281738,359.450714 525.122620,350.844238 
	C525.102966,349.780029 524.027649,348.574402 523.163635,347.713074 
	C517.972473,342.537781 517.702393,336.057129 522.584473,331.449951 
	C526.931091,327.348083 534.296082,327.996887 538.130737,332.819305 
	C542.078613,337.784180 540.797729,344.217285 535.175049,348.422394 
	C534.115540,349.214813 532.777161,350.548096 532.749634,351.661041 
	C532.545044,359.940430 532.638611,368.227203 532.638611,376.767639 
	C535.534058,376.767639 537.947754,376.767639 540.978210,376.767639 
	C540.978210,372.349945 541.208435,368.049469 540.909668,363.786072 
	C540.641479,359.959595 541.750671,357.031128 544.669739,354.564117 
	C546.827271,352.740723 548.643311,350.516327 550.777405,348.661377 
	C553.176208,346.576385 554.475647,344.614929 553.715332,340.977081 
	C552.534729,335.328796 557.139771,330.141907 562.934387,329.573761 
	C568.754211,329.003082 573.978271,333.386505 574.679810,339.429016 
	C575.325684,344.991394 570.793884,351.430267 565.307739,350.716797 
	C557.494995,349.700684 554.097473,355.072998 550.487183,359.543152 
	C548.451050,362.064240 548.657654,366.492218 548.132812,370.101776 
	C547.828674,372.193237 548.077515,374.365173 548.077515,376.417267 
	C561.102417,378.897614 564.014893,381.816132 565.397217,393.677612 
	C572.927368,394.307343 580.710449,395.850342 585.795349,387.866882 
	C586.942505,386.065796 588.067932,383.957825 588.267700,381.900299 
	C588.914001,375.243927 593.920593,370.500519 600.196655,371.103302 
	C606.034119,371.663971 610.514343,377.236053 609.784180,383.027283 
	C608.960693,389.558777 603.167114,393.395325 596.297607,392.245209 
	C594.723022,391.981598 592.137390,392.113525 591.449402,393.081482 
	C585.395874,401.598358 576.859741,402.582703 567.528992,401.624420 
	C566.912354,401.561096 566.262390,401.822388 565.359863,401.979279 
	C565.359863,404.349091 565.359863,406.614014 565.359863,409.720032 
	C575.226074,409.720032 585.146240,409.786316 595.062012,409.608765 
	C595.967712,409.592499 597.013123,408.131958 597.707825,407.141632 
	C601.218689,402.136749 608.182739,400.866028 613.077576,404.426483 
	C617.995972,408.004089 618.890442,415.163849 615.013062,419.918671 
	C610.909241,424.951263 603.322144,425.794250 599.265015,420.747192 
	C596.375977,417.153290 593.285583,416.965637 589.474548,417.014862 
	C581.516418,417.117645 573.556030,417.045990 565.305603,417.045990 
	C565.305603,419.657562 565.305603,421.925385 565.305603,424.905273 
	C570.148193,424.905273 575.079407,424.836334 580.007385,424.931030 
	C582.982605,424.988220 587.144775,423.773071 587.132324,428.700745 
	C587.120483,433.405487 583.084290,432.076355 580.311951,432.143585 
	C575.499451,432.260345 570.681946,432.176025 565.472656,432.176025 
	C565.472656,434.781006 565.472656,437.146820 565.472656,440.123840 
	C575.260925,440.123840 585.038025,440.203247 594.809937,440.015564 
	C595.932312,439.993988 597.245178,438.662872 598.096191,437.630951 
	C602.429382,432.376831 609.130127,431.600037 613.911438,435.926788 
	C618.658508,440.222534 618.796387,447.712708 614.205688,451.911743 
	C609.355835,456.347839 602.884827,455.615082 598.275024,450.526855 
	C596.943420,449.057098 594.611572,447.745331 592.694641,447.681854 
	C583.733643,447.385132 574.757385,447.550140 565.484192,447.550140 
	C565.484192,450.313690 565.484192,452.545105 565.484192,455.428925 
	C568.075684,455.428925 570.561401,455.718140 572.956238,455.374207 
	C579.912354,454.375305 585.227722,456.917511 589.593018,462.203888 
	C591.627258,464.667419 593.723450,466.266449 597.683472,464.983856 
	C602.304260,463.487213 606.112854,466.143585 608.415894,470.318085 
	C610.714417,474.484375 610.468201,478.678833 607.489319,482.486115 
	C604.413940,486.416656 600.299438,487.234100 594.084717,485.109375 
M486.508667,472.207001 
	C506.657990,472.222595 526.807312,472.250763 546.956604,472.248077 
	C555.989502,472.246887 557.591003,470.644806 557.497009,461.405792 
	C557.409058,452.762726 557.000549,444.121399 557.002258,435.479340 
	C557.005005,421.007690 557.300110,406.536163 557.304504,392.064514 
	C557.305969,387.229645 554.718689,384.705566 549.815186,384.691772 
	C525.170166,384.622314 500.524597,384.626404 475.879608,384.715179 
	C470.573273,384.734283 468.049561,387.460266 467.956696,392.835175 
	C467.876190,397.495972 468.005737,402.159973 468.005707,406.822571 
	C468.005676,425.473114 467.981964,444.123657 467.987000,462.774200 
	C467.988953,470.093506 470.079590,472.149994 477.520508,472.217926 
	C480.184601,472.242218 482.849243,472.211090 486.508667,472.207001 
M531.603699,520.962158 
	C531.934937,519.106567 532.525269,517.233643 532.403442,515.408264 
	C532.375305,514.985901 529.658569,514.124817 528.640930,514.555969 
	C527.570435,515.009460 526.193726,517.558289 526.440308,517.827576 
	C527.680298,519.181763 529.407471,520.090027 531.603699,520.962158 
M423.846619,477.729309 
	C425.622314,477.938293 427.463379,478.497284 429.141479,478.183868 
	C429.812347,478.058594 430.748291,475.801300 430.443512,474.888519 
	C430.048859,473.706573 428.612152,472.184784 427.487396,472.062073 
	C423.980469,471.679565 422.768494,473.755859 423.846619,477.729309 
M567.619446,340.494843 
	C566.237732,339.238678 564.975525,337.763611 563.382812,336.893921 
	C563.024353,336.698212 560.715515,338.621033 560.722046,339.558777 
	C560.731201,340.891052 562.076660,343.327209 562.808838,343.311584 
	C564.372070,343.278137 565.908203,341.972473 567.619446,340.494843 
M427.281677,378.053864 
	C425.882599,379.476807 424.483551,380.899780 423.084503,382.322693 
	C424.195648,383.362030 425.177612,384.967377 426.459167,385.259888 
	C427.467651,385.490112 429.909119,384.013794 429.862671,383.447235 
	C429.716309,381.661224 428.698273,379.946625 427.281677,378.053864 
M499.214905,516.967102 
	C497.723511,516.094543 496.260376,514.658630 494.729034,514.581665 
	C493.936157,514.541809 492.462677,516.867310 492.358948,518.206421 
	C492.289276,519.105530 494.500549,521.143738 494.966309,520.947937 
	C496.594513,520.263428 497.907806,518.829834 499.214905,516.967102 
M598.697083,378.128723 
	C597.728638,379.729340 596.545410,381.258789 595.971680,382.990204 
	C595.855896,383.339630 598.186035,385.206177 599.143250,385.031250 
	C600.431946,384.795807 602.581787,382.977051 602.417542,382.335754 
	C602.018066,380.775909 600.496826,379.503326 598.697083,378.128723 
M498.922485,341.514130 
	C498.471375,339.736115 498.299042,337.792328 497.400146,336.280548 
	C497.128540,335.823730 494.262665,336.092834 493.625244,336.875977 
	C492.820099,337.865295 492.570251,340.825836 492.967896,341.008850 
	C494.593353,341.757050 496.556732,341.770905 498.922485,341.514130 
M609.525085,411.046112 
	C607.606445,411.040344 605.632996,410.799774 603.814697,411.223969 
	C603.444641,411.310303 603.109985,414.274353 603.761292,415.225555 
	C604.378601,416.127106 606.997620,416.866638 607.526428,416.375305 
	C608.726074,415.260620 609.181580,413.345093 609.525085,411.046112 
M458.305450,341.857178 
	C460.159729,342.253204 462.019287,342.891174 463.864105,342.851196 
	C464.256378,342.842712 465.274323,339.984558 464.789886,339.118073 
	C464.156952,337.985962 461.774139,336.592712 461.107605,336.978119 
	C459.742493,337.767426 459.019623,339.667389 458.305450,341.857178 
M567.789795,518.321228 
	C566.905151,516.624939 566.215881,514.756897 564.989075,513.361328 
	C564.706482,513.039856 562.012512,514.014648 561.460510,514.981995 
	C560.892395,515.977661 561.299316,518.773132 561.778503,518.900208 
	C563.527710,519.364258 565.485229,519.043091 567.789795,518.321228 
M526.665161,337.983002 
	C527.383179,339.588989 527.850281,341.419373 528.967468,342.668304 
	C529.315979,343.057983 532.150452,342.206726 532.545044,341.334534 
	C533.092712,340.123993 532.766968,337.229248 532.189270,337.047729 
	C530.649109,336.563934 528.774475,337.144958 526.665161,337.983002 
M417.293457,447.138275 
	C418.892975,446.475708 420.860962,446.152466 421.925201,444.996887 
	C422.404633,444.476349 421.443695,441.886169 420.451843,441.008514 
	C419.761749,440.397858 416.841217,440.869141 416.754150,441.263092 
	C416.364014,443.028351 416.632294,444.939117 417.293457,447.138275 
M603.653259,445.147491 
	C605.163818,447.826843 607.508972,448.134918 609.248413,446.019836 
	C610.001404,445.104187 609.489868,441.668182 608.526306,441.091217 
	C605.287415,439.151917 603.726807,441.163788 603.653259,445.147491 
M597.161987,478.256866 
	C598.879333,477.919922 600.760620,477.879639 602.218567,477.073517 
	C602.683594,476.816406 602.492859,474.103302 601.751404,473.283203 
	C600.974548,472.423950 599.175293,472.489014 597.822937,472.150085 
	C597.406494,474.006012 596.990051,475.861969 597.161987,478.256866 
M460.700348,513.198914 
	C457.294739,516.005249 456.973511,519.091370 460.126282,519.804504 
	C461.459290,520.106079 464.004944,519.155945 464.538025,518.062317 
	C465.798615,515.476318 464.335083,513.650452 460.700348,513.198914 
M415.220856,414.135620 
	C416.921356,414.883453 418.578430,415.907654 420.352631,416.186371 
	C420.800964,416.256836 422.250214,413.860962 422.098053,412.755554 
	C421.944611,411.641113 419.864075,409.711578 419.507874,409.890533 
	C417.877502,410.709747 416.555939,412.143585 415.220856,414.135620 
z"/>
<path fill="#FDFDFD" opacity="1.000000" stroke="none" 
	d="
M486.011139,472.206116 
	C482.849243,472.211090 480.184601,472.242218 477.520508,472.217926 
	C470.079590,472.149994 467.988953,470.093506 467.987000,462.774200 
	C467.981964,444.123657 468.005676,425.473114 468.005707,406.822571 
	C468.005737,402.159973 467.876190,397.495972 467.956696,392.835175 
	C468.049561,387.460266 470.573273,384.734283 475.879608,384.715179 
	C500.524597,384.626404 525.170166,384.622314 549.815186,384.691772 
	C554.718689,384.705566 557.305969,387.229645 557.304504,392.064514 
	C557.300110,406.536163 557.005005,421.007690 557.002258,435.479340 
	C557.000549,444.121399 557.409058,452.762726 557.497009,461.405792 
	C557.591003,470.644806 555.989502,472.246887 546.956604,472.248077 
	C526.807312,472.250763 506.657990,472.222595 486.011139,472.206116 
M542.761902,428.500000 
	C542.752502,421.007874 542.832703,413.514191 542.702759,406.024170 
	C542.613342,400.873840 540.838318,399.161377 535.680786,399.144440 
	C520.530334,399.094757 505.379456,399.101532 490.229095,399.162140 
	C484.997772,399.183075 483.210938,400.889618 483.182831,405.963409 
	C483.098969,421.113678 483.135895,436.264587 483.092407,451.415161 
	C483.079437,455.931335 485.180511,458.164673 489.767853,458.164948 
	C505.251312,458.165833 520.734863,458.212555 536.218201,458.280426 
	C540.841431,458.300690 542.856628,455.978973 542.817200,451.476318 
	C542.753052,444.151306 542.776428,436.825470 542.761902,428.500000 
z"/>
<path fill="#FDFDFD" opacity="1.000000" stroke="none" 
	d="
M531.283630,521.058472 
	C529.407471,520.090027 527.680298,519.181763 526.440308,517.827576 
	C526.193726,517.558289 527.570435,515.009460 528.640930,514.555969 
	C529.658569,514.124817 532.375305,514.985901 532.403442,515.408264 
	C532.525269,517.233643 531.934937,519.106567 531.283630,521.058472 
z"/>
<path fill="#FDFDFD" opacity="1.000000" stroke="none" 
	d="
M423.639404,477.399017 
	C422.768494,473.755859 423.980469,471.679565 427.487396,472.062073 
	C428.612152,472.184784 430.048859,473.706573 430.443512,474.888519 
	C430.748291,475.801300 429.812347,478.058594 429.141479,478.183868 
	C427.463379,478.497284 425.622314,477.938293 423.639404,477.399017 
z"/>
<path fill="#FDFDFD" opacity="1.000000" stroke="none" 
	d="
M567.537476,340.841431 
	C565.908203,341.972473 564.372070,343.278137 562.808838,343.311584 
	C562.076660,343.327209 560.731201,340.891052 560.722046,339.558777 
	C560.715515,338.621033 563.024353,336.698212 563.382812,336.893921 
	C564.975525,337.763611 566.237732,339.238678 567.537476,340.841431 
z"/>
<path fill="#FDFDFD" opacity="1.000000" stroke="none" 
	d="
M427.649628,378.129150 
	C428.698273,379.946625 429.716309,381.661224 429.862671,383.447235 
	C429.909119,384.013794 427.467651,385.490112 426.459167,385.259888 
	C425.177612,384.967377 424.195648,383.362030 423.084473,382.322693 
	C424.483551,380.899780 425.882599,379.476807 427.649628,378.129150 
z"/>
<path fill="#FDFDFD" opacity="1.000000" stroke="none" 
	d="
M499.277832,517.323975 
	C497.907806,518.829834 496.594513,520.263428 494.966309,520.947937 
	C494.500549,521.143738 492.289276,519.105530 492.358948,518.206421 
	C492.462677,516.867310 493.936157,514.541809 494.729034,514.581665 
	C496.260376,514.658630 497.723511,516.094543 499.277832,517.323975 
z"/>
<path fill="#FDFDFD" opacity="1.000000" stroke="none" 
	d="
M599.062256,378.121887 
	C600.496826,379.503326 602.018066,380.775909 602.417542,382.335754 
	C602.581787,382.977051 600.431946,384.795807 599.143250,385.031250 
	C598.186035,385.206177 595.855896,383.339630 595.971680,382.990204 
	C596.545410,381.258789 597.728638,379.729340 599.062256,378.121887 
z"/>
<path fill="#FDFDFD" opacity="1.000000" stroke="none" 
	d="
M498.659088,341.784668 
	C496.556732,341.770905 494.593353,341.757050 492.967896,341.008850 
	C492.570251,340.825836 492.820099,337.865295 493.625244,336.875977 
	C494.262665,336.092834 497.128540,335.823730 497.400146,336.280548 
	C498.299042,337.792328 498.471375,339.736115 498.659088,341.784668 
z"/>
<path fill="#FDFDFD" opacity="1.000000" stroke="none" 
	d="
M609.732361,411.400635 
	C609.181580,413.345093 608.726074,415.260620 607.526428,416.375305 
	C606.997620,416.866638 604.378601,416.127106 603.761292,415.225555 
	C603.109985,414.274353 603.444641,411.310303 603.814697,411.223969 
	C605.632996,410.799774 607.606445,411.040344 609.732361,411.400635 
z"/>
<path fill="#FDFDFD" opacity="1.000000" stroke="none" 
	d="
M458.168884,341.483582 
	C459.019623,339.667389 459.742493,337.767426 461.107605,336.978119 
	C461.774139,336.592712 464.156952,337.985962 464.789886,339.118073 
	C465.274323,339.984558 464.256378,342.842712 463.864105,342.851196 
	C462.019287,342.891174 460.159729,342.253204 458.168884,341.483582 
z"/>
<path fill="#FDFDFD" opacity="1.000000" stroke="none" 
	d="
M567.577026,518.669556 
	C565.485229,519.043091 563.527710,519.364258 561.778503,518.900208 
	C561.299316,518.773132 560.892395,515.977661 561.460510,514.981995 
	C562.012512,514.014648 564.706482,513.039856 564.989075,513.361328 
	C566.215881,514.756897 566.905151,516.624939 567.577026,518.669556 
z"/>
<path fill="#FDFDFD" opacity="1.000000" stroke="none" 
	d="
M526.848999,337.642822 
	C528.774475,337.144958 530.649109,336.563934 532.189270,337.047729 
	C532.766968,337.229248 533.092712,340.123993 532.545044,341.334534 
	C532.150452,342.206726 529.315979,343.057983 528.967468,342.668304 
	C527.850281,341.419373 527.383179,339.588989 526.848999,337.642822 
z"/>
<path fill="#FDFDFD" opacity="1.000000" stroke="none" 
	d="
M416.978210,446.967834 
	C416.632294,444.939117 416.364014,443.028351 416.754150,441.263092 
	C416.841217,440.869141 419.761749,440.397858 420.451843,441.008514 
	C421.443695,441.886169 422.404633,444.476349 421.925201,444.996887 
	C420.860962,446.152466 418.892975,446.475708 416.978210,446.967834 
z"/>
<path fill="#FDFDFD" opacity="1.000000" stroke="none" 
	d="
M603.522278,444.793060 
	C603.726807,441.163788 605.287415,439.151917 608.526306,441.091217 
	C609.489868,441.668182 610.001404,445.104187 609.248413,446.019836 
	C607.508972,448.134918 605.163818,447.826843 603.522278,444.793060 
z"/>
<path fill="#FDFDFD" opacity="1.000000" stroke="none" 
	d="
M596.867798,477.987366 
	C596.990051,475.861969 597.406494,474.006012 597.822937,472.150085 
	C599.175293,472.489014 600.974548,472.423950 601.751404,473.283203 
	C602.492859,474.103302 602.683594,476.816406 602.218567,477.073517 
	C600.760620,477.879639 598.879333,477.919922 596.867798,477.987366 
z"/>
<path fill="#FDFDFD" opacity="1.000000" stroke="none" 
	d="
M461.089478,513.158997 
	C464.335083,513.650452 465.798615,515.476318 464.538025,518.062317 
	C464.004944,519.155945 461.459290,520.106079 460.126282,519.804504 
	C456.973511,519.091370 457.294739,516.005249 461.089478,513.158997 
z"/>
<path fill="#FDFDFD" opacity="1.000000" stroke="none" 
	d="
M415.172150,413.746155 
	C416.555939,412.143585 417.877502,410.709747 419.507874,409.890533 
	C419.864075,409.711578 421.944611,411.641113 422.098053,412.755554 
	C422.250214,413.860962 420.800964,416.256836 420.352631,416.186371 
	C418.578430,415.907654 416.921356,414.883453 415.172150,413.746155 
z"/>
<path fill="#3670C7" opacity="1.000000" stroke="none" 
	d="
M542.762390,429.000000 
	C542.776428,436.825470 542.753052,444.151306 542.817200,451.476318 
	C542.856628,455.978973 540.841431,458.300690 536.218201,458.280426 
	C520.734863,458.212555 505.251312,458.165833 489.767853,458.164948 
	C485.180511,458.164673 483.079437,455.931335 483.092407,451.415161 
	C483.135895,436.264587 483.098969,421.113678 483.182831,405.963409 
	C483.210938,400.889618 484.997772,399.183075 490.229095,399.162140 
	C505.379456,399.101532 520.530334,399.094757 535.680786,399.144440 
	C540.838318,399.161377 542.613342,400.873840 542.702759,406.024170 
	C542.832703,413.514191 542.752502,421.007874 542.762390,429.000000 
M498.570892,450.892273 
	C510.651917,450.892273 522.732910,450.892273 534.856018,450.892273 
	C534.856018,435.810699 534.856018,421.417480 534.856018,407.094330 
	C520.011414,407.094330 505.493439,407.094330 490.973633,407.094330 
	C490.973633,421.822845 490.973633,436.072876 490.973633,450.893341 
	C493.362854,450.893341 495.477173,450.893341 498.570892,450.892273 
z"/>
<path fill="#FDFDFD" opacity="1.000000" stroke="none" 
	d="
M498.081177,450.892822 
	C495.477173,450.893341 493.362854,450.893341 490.973633,450.893341 
	C490.973633,436.072876 490.973633,421.822845 490.973633,407.094330 
	C505.493439,407.094330 520.011414,407.094330 534.856018,407.094330 
	C534.856018,421.417480 534.856018,435.810699 534.856018,450.892273 
	C522.732910,450.892273 510.651917,450.892273 498.081177,450.892822 
z"/>
</svg>