<?xml version="1.0" encoding="UTF-8"?>
<svg xmlns="http://www.w3.org/2000/svg" width="256" height="256" xmlns:xlink="http://www.w3.org/1999/xlink" version="1.1" viewBox="0 0 256 256">
  <!-- Generator: Adobe Illustrator 29.0.1, SVG Export Plug-In . SVG Version: 2.1.0 Build 192)  -->
  <defs>
    <style>
      .st0 {
        fill: none;
      }

      .st1 {
        fill: url(#_未命名的渐变_1121);
      }

      .st2 {
        fill: url(#_未命名的渐变_1124);
      }

      .st3 {
        fill: url(#_未命名的渐变_1126);
      }

      .st4 {
        fill: url(#_未命名的渐变_1125);
      }

      .st5 {
        fill: url(#_未命名的渐变_1123);
      }

      .st6 {
        fill: url(#_未命名的渐变_112);
      }

      .st7 {
        fill: url(#_未命名的渐变_127);
      }

      .st8 {
        fill: #fff;
      }

      .st8, .st9, .st10 {
        opacity: .4;
      }

      .st11 {
        isolation: isolate;
      }

      .st12 {
        fill: url(#_未命名的渐变_1128);
      }

      .st12, .st13 {
        mix-blend-mode: lighten;
        opacity: .1;
      }

      .st13 {
        fill: url(#_未命名的渐变_1129);
      }

      .st9 {
        fill: url(#_未命名的渐变_1122);
      }

      .st10 {
        fill: url(#_未命名的渐变_1127);
      }
    </style>
    <linearGradient id="_未命名的渐变_127" data-name="未命名的渐变 127" x1="128" y1="42.7" x2="128" y2="233" gradientUnits="userSpaceOnUse">
      <stop offset="0" stop-color="#27e4c0"/>
      <stop offset=".6" stop-color="#31e0b5"/>
      <stop offset=".9" stop-color="#3454ee"/>
    </linearGradient>
    <linearGradient id="_未命名的渐变_112" data-name="未命名的渐变 112" x1="52.3" y1="117.5" x2="50.6" y2="163.1" gradientUnits="userSpaceOnUse">
      <stop offset="0" stop-color="#fff" stop-opacity="0"/>
      <stop offset="1" stop-color="#fff"/>
    </linearGradient>
    <linearGradient id="_未命名的渐变_1121" data-name="未命名的渐变 112" x1="63.8" y1="118" x2="62" y2="163.5" xlink:href="#_未命名的渐变_112"/>
    <linearGradient id="_未命名的渐变_1122" data-name="未命名的渐变 112" x1="65.2" y1="118" x2="63.4" y2="163.6" xlink:href="#_未命名的渐变_112"/>
    <linearGradient id="_未命名的渐变_1123" data-name="未命名的渐变 112" x1="205.8" y1="123.4" x2="204.1" y2="169" xlink:href="#_未命名的渐变_112"/>
    <linearGradient id="_未命名的渐变_1124" data-name="未命名的渐变 112" x1="206.2" y1="123.4" x2="204.5" y2="169" xlink:href="#_未命名的渐变_112"/>
    <linearGradient id="_未命名的渐变_1125" data-name="未命名的渐变 112" x1="206.1" y1="123.4" x2="204.4" y2="169" xlink:href="#_未命名的渐变_112"/>
    <linearGradient id="_未命名的渐变_1126" data-name="未命名的渐变 112" x1="191.6" y1="122.9" x2="189.8" y2="168.5" xlink:href="#_未命名的渐变_112"/>
    <linearGradient id="_未命名的渐变_1127" data-name="未命名的渐变 112" x1="191.7" y1="122.9" x2="189.9" y2="168.5" xlink:href="#_未命名的渐变_112"/>
    <linearGradient id="_未命名的渐变_1128" data-name="未命名的渐变 112" x1="87.6" y1="118.9" x2="85.8" y2="164.5" xlink:href="#_未命名的渐变_112"/>
    <linearGradient id="_未命名的渐变_1129" data-name="未命名的渐变 112" x1="177.9" y1="122.4" x2="176.1" y2="167.9" xlink:href="#_未命名的渐变_112"/>
  </defs>
  <g class="st11">
    <g id="_图层_1" data-name="图层_1">
      <g>
        <path class="st7" d="M128,227.9c38.3,0,70-27.8,76.2-64.3.7-5.5,1.1-11.2,1.1-17.3,0-18.3-10.4-42.3-26.9-59.2-5.3-5.4-11.2-10-17.5-13.5h0s-.3,9.6-2.9,15.7c0,0,0,0,0,0-.6,1.4-1.3,2.6-2.2,3.5-.9.8-1.9,1.3-3.1,1.3-6-.3-6.1-4.5-6.1-11.3,0-1.8,0-3.7,0-5.8-.3-9.1-3.9-23.7-11.4-35.1-3.9-5.9-8.8-10.9-14.9-13.8,0,0,0,0,0,0-.1.6-.3,1.4-.5,2.4-.2.8-.5,1.8-.8,2.8-2.1,8.2-8.6,24.7-28.1,44.5-2.8,2.8-5.8,5.7-9.2,8.7-1.3,1.2-2.7,2.5-4.1,3.8-.5.5-.9.9-1.4,1.4-12.8,13.5-24.9,34.6-25.4,59.7.4,42.3,34.8,76.5,77.2,76.5Z"/>
        <path class="st8" d="M159.9,168.8l-31.5,45c-2,3.2-4.6,1.8-4.9-2l-1.4-28.7-21.5.2c-4.3,0-6.6-4.6-4.2-8.1l30.1-44.5c1.8-2.5,5.9-1.2,5.9,1.9,0,11.5.2,29.1.3,30.3l22.3-1.3c3.5-.2,6.6,4.2,4.7,7.1Z"/>
        <path class="st0" d="M205.3,146.3s0,0,0,0c0,1.7,0,3.4,0,5,0-1.7,0-3.3,0-5Z"/>
        <path class="st0" d="M205.1,153.4c0,.9,0,1.8-.2,2.6,0-.9.1-1.8.2-2.6Z"/>
        <path class="st0" d="M51.4,142.3c0,0,0-.2,0-.2,0,0,0,.2,0,.2Z"/>
        <path class="st0" d="M204.2,163.6s0,0,0,0c0,0,0,0,0,.1,0,0,0,0,0,0Z"/>
        <path class="st0" d="M51.2,144.8c0-.2,0-.4,0-.6,0,.2,0,.4,0,.6Z"/>
        <path class="st0" d="M204.7,158.7c0,.6-.1,1.2-.2,1.7,0-.6.1-1.1.2-1.7Z"/>
        <path class="st0" d="M157.9,89.2s0,0,0,0c0,0,0,0,0,0-.6,1.4-1.3,2.6-2.2,3.5-.9.8-1.9,1.3-3.1,1.3-6-.3-6.1-4.5-6.1-11.3,0-1.8,0-3.7,0-5.8-.3-9.1-3.9-23.7-11.4-35.1-3.9-5.9-8.8-10.9-14.9-13.8,0,0,0,0,0,0-.1.6-.3,1.4-.5,2.4,0,0,0,0,0,0-.9,9.1-5.9,40.4-32.9,74.1-14,17.4-26.6,49.6-16.6,83.5,3,10.1,8,18.9,14,26.1,12.5,8.6,27.6,13.7,43.9,13.7s33.6-5.8,46.5-15.6c7.9-11.2,12.9-26.3,15-45.3,2.7-23.6-9.2-60.6-31.6-77.8Z"/>
        <path class="st6" d="M51.2,144.2c0-.6.1-1.3.2-1.9,0,.6-.2,1.3-.2,1.9Z"/>
        <path class="st1" d="M76.1,91.7c-11.2,11.7-21.8,29.4-24.6,50.3,2.9-20.9,13.4-38.5,24.6-50.2,0,0,0,0,0-.1Z"/>
        <path class="st9" d="M74.9,206.7c-8.9-12.5-15.2-28.4-16.8-46.1-2.4-28.4,6.8-52.3,17.9-68.8-11.1,11.7-21.7,29.3-24.6,50.2,0,0,0,.2,0,.2,0,.6-.2,1.3-.2,1.9,0,.2,0,.4,0,.6,0,.6-.1,1.2-.2,1.8,0,.2,0,.4,0,.7,0,1.4-.2,2.7-.2,4.1.2,21.8,9.5,41.4,24.2,55.3Z"/>
        <path class="st5" d="M204.2,163.5c.1-1,.2-2,.3-3-.1,1-.2,2-.3,3Z"/>
        <path class="st2" d="M205.2,151.3c0,.7,0,1.4,0,2.1,0-.7,0-1.4,0-2.1Z"/>
        <path class="st4" d="M204.9,156c0,.9-.1,1.8-.2,2.7,0-.9.2-1.8.2-2.7Z"/>
        <path class="st3" d="M205.3,146.2s0,0,0,0c0-18.3-10.4-42.3-26.9-59.2,0,0,0,0,0,.1,16.4,16.8,26.8,40.8,26.8,59Z"/>
        <path class="st10" d="M204.7,158.7c0-.9.2-1.8.2-2.7,0-.9.1-1.8.2-2.6,0-.7,0-1.4,0-2.1,0-1.7,0-3.3,0-5,0-18.3-10.4-42.2-26.8-59,10.4,14.7,17.5,32.6,18.8,47.8,2.1,25.4-.9,47.1-9,63.9,8-10,13.6-22.1,15.9-35.3,0,0,0,0,0-.1.1-1,.2-2,.3-3,0-.6.1-1.1.2-1.7Z"/>
        <path class="st12" d="M86.7,104.7c27-33.7,32-65,32.9-74.1-.2.8-.5,1.8-.8,2.8-2.1,8.2-8.6,24.7-28.1,44.5-2.8,2.8-5.8,5.7-9.2,8.7-1.3,1.2-2.7,2.5-4.1,3.8-.5.5-.9.9-1.4,1.4,0,0,0,0,0,0-11.1,16.5-20.3,40.4-17.9,68.8,1.5,17.7,7.9,33.6,16.8,46.1,2.9,2.7,5.9,5.2,9.2,7.5-6-7.2-11-15.9-14-26.1-10-33.8,2.7-66,16.6-83.5Z"/>
        <path class="st13" d="M188.3,198.9c8.1-16.7,11.1-38.5,9-63.9-1.3-15.2-8.4-33.1-18.8-47.8,0,0,0,0,0,0-5.3-5.4-11.2-10-17.5-13.5h0s-.3,9.6-2.9,15.7c22.4,17.1,34.3,54.2,31.6,77.8-2.1,19-7.2,34.1-15,45.3,5.1-3.9,9.7-8.4,13.7-13.4Z"/>
      </g>
    </g>
    <metadata>
      <sfw xmlns="http://ns.adobe.com/SaveForWeb/1.0/">
        <slices/>
        <sliceSourceBounds x="1262" y="-1956.94" width="3020.27" height="2292.38" bottomLeftOrigin="true"/>
      </sfw>
    </metadata>
  </g>
</svg>