<svg version="1.1" id="Layer_1" xmlns="http://www.w3.org/2000/svg" xmlns:xlink="http://www.w3.org/1999/xlink" x="0px" y="0px"
	 width="100%" viewBox="0 0 1024 1024" enable-background="new 0 0 1024 1024" xml:space="preserve">
<path fill="#000000" opacity="1.000000" stroke="none" 
	d="
M693.262878,250.239075 
	C695.405273,257.026794 694.483582,262.897522 689.764465,267.770691 
	C686.824158,270.807037 686.586243,273.568756 688.223267,277.532166 
	C698.523560,302.470123 709.707092,327.018311 720.554199,351.714508 
	C730.730408,374.883331 740.878845,398.064667 751.168579,421.183044 
	C752.920410,425.118927 751.750977,428.807465 750.793335,432.380890 
	C744.996460,454.012970 730.139160,466.639954 709.413086,473.199677 
	C698.812195,476.554871 688.040039,477.356201 676.878906,476.662292 
	C668.453186,476.138458 659.917664,476.961700 651.536560,475.321747 
	C632.245056,471.546967 616.159790,462.912170 606.111206,445.152344 
	C602.955750,439.575531 601.241150,433.522705 599.648132,427.395111 
	C598.822266,424.218506 600.083801,421.533997 601.307861,418.776489 
	C615.157471,387.576935 629.005615,356.376709 642.816956,325.160217 
	C649.891479,309.170258 656.852844,293.130157 663.957886,277.153870 
	C665.314026,274.104370 665.796692,271.601562 662.545776,269.382080 
	C661.392273,268.594543 660.202148,267.100800 660.015747,265.789215 
	C659.240051,260.331238 655.667114,260.191254 651.286926,260.205231 
	C617.460693,260.313202 583.633728,260.305695 549.807678,260.160583 
	C545.377869,260.141602 542.123352,260.609009 540.844360,265.700897 
	C540.087952,268.712250 538.366028,271.741180 535.850952,273.648621 
	C531.740906,276.765747 531.776489,280.526337 532.386169,285.084290 
	C535.205872,306.162079 537.796265,327.271362 540.304688,348.388824 
	C540.625122,351.086395 541.775879,352.067749 544.222107,352.598755 
	C556.973328,355.366730 565.860107,371.213776 561.644592,383.405334 
	C560.564697,386.528381 558.128967,387.151154 555.312744,387.171600 
	C546.481628,387.235718 537.650146,387.292877 528.818848,387.299591 
	C510.155914,387.313751 491.493011,387.304810 472.830078,387.282806 
	C466.273041,387.275085 464.817566,385.866882 464.804047,379.441406 
	C464.775604,365.954590 469.025085,355.164673 482.897003,352.114349 
	C484.794434,351.697144 485.431152,350.351349 485.690887,348.482849 
	C488.527649,328.072357 491.731781,307.710693 493.677948,287.183594 
	C493.818848,285.697540 494.083160,284.215729 494.397217,282.755005 
	C495.080078,279.578827 494.723999,277.012665 491.616425,275.008148 
	C487.963959,272.652191 486.106689,268.807953 484.932648,264.743011 
	C484.013580,261.560944 482.295746,260.234406 478.839569,260.243042 
	C443.513519,260.331451 408.187042,260.311676 372.860992,260.210266 
	C369.748657,260.201324 367.801025,261.155548 366.765930,264.106781 
	C366.329651,265.350739 365.865662,266.901276 364.899292,267.591248 
	C358.978180,271.818878 361.421448,276.460480 363.645142,281.481110 
	C384.209473,327.910980 404.659637,374.391449 425.173187,420.843872 
	C426.083160,422.904510 426.357910,424.876740 425.938599,427.127930 
	C421.689026,449.942230 407.771515,464.217133 386.545563,472.222229 
	C371.474213,477.906281 355.860077,477.241089 340.181305,476.838287 
	C325.887146,476.471130 312.502472,473.160217 300.236145,465.830414 
	C286.272583,457.486481 278.285553,444.837585 274.875610,429.167145 
	C273.635712,423.469330 276.035614,418.343140 278.259827,413.314209 
	C297.995728,368.691223 317.740814,324.072205 337.580475,279.495361 
	C339.511780,275.156067 340.334900,271.976105 336.388641,267.690613 
	C330.339478,261.121460 331.245056,249.540848 337.010101,243.307831 
	C342.593994,237.270706 352.225311,235.996765 359.526093,240.153488 
	C361.658783,241.367737 363.396240,243.033356 364.406036,245.028397 
	C366.578857,249.321289 369.979492,249.776779 374.266571,249.717316 
	C399.752747,249.363800 425.241852,249.168503 450.730499,249.075943 
	C459.886383,249.042679 469.046936,249.358124 478.198975,249.689743 
	C481.437378,249.807098 483.505676,248.908371 484.670166,245.646103 
	C486.542969,240.399277 489.528748,235.793045 493.852081,232.166626 
	C495.219391,231.019775 495.862213,229.620239 495.936707,227.830643 
	C496.130585,223.174194 496.501495,218.524399 496.653900,213.867111 
	C496.959259,204.535446 504.054352,196.457397 512.642517,195.790390 
	C520.721558,195.162949 528.726257,201.799789 530.605896,210.800369 
	C531.640381,215.754227 531.246521,220.754395 530.621521,225.718475 
	C530.309082,228.199432 530.585693,230.215424 532.754089,231.906647 
	C537.211487,235.383087 540.123962,240.077682 542.004150,245.311646 
	C543.123047,248.426300 544.764771,249.750626 548.184937,249.741959 
	C583.510864,249.652298 618.837341,249.658981 654.163208,249.769058 
	C657.476807,249.779373 659.281311,248.151382 661.146057,245.847443 
	C668.253052,237.066422 675.321472,235.626907 685.389648,240.469498 
	C689.498779,242.445892 691.442566,245.992157 693.262878,250.239075 
M626.466919,388.912079 
	C622.297241,398.621460 618.127563,408.330841 613.590637,418.895325 
	C655.283508,418.895325 696.105164,418.895325 738.523254,418.895325 
	C716.785461,371.423523 697.323364,324.461182 676.761353,277.980530 
	C676.244751,278.043274 675.728210,278.106049 675.211609,278.168823 
	C659.063599,314.849274 642.915527,351.529694 626.466919,388.912079 
M307.506592,374.890839 
	C301.129730,389.201202 294.752899,403.511566 288.048676,418.556671 
	C329.795868,418.556671 370.323883,418.556671 412.333984,418.556671 
	C390.544891,371.664917 371.613007,324.597076 350.002869,277.203918 
	C335.878235,310.375275 321.026642,341.924286 307.506592,374.890839 
M327.035583,464.516296 
	C338.632233,466.268646 350.318817,465.880981 361.962891,465.635010 
	C376.629333,465.325134 390.247101,461.770599 401.204681,451.097412 
	C406.989441,445.462830 412.187256,439.582916 413.490784,430.101471 
	C370.894012,428.429291 328.783813,430.604492 286.700409,429.702240 
	C286.464264,442.151215 303.561249,460.893768 327.035583,464.516296 
M674.505127,465.730804 
	C677.670410,465.739197 680.845459,465.588837 683.999146,465.784271 
	C695.747803,466.512299 706.840820,464.444031 717.138794,458.536102 
	C728.203125,452.188568 736.513855,443.654877 740.167542,430.209015 
	C697.081787,430.209015 654.608582,430.209015 611.273193,430.209015 
	C615.984375,444.613312 624.698547,453.965881 637.384827,459.824982 
	C648.876404,465.132233 661.083374,466.106995 674.505127,465.730804 
M500.214478,320.433228 
	C499.007935,330.604065 497.801422,340.774902 496.496765,351.772766 
	C506.383606,351.772766 515.811951,351.641235 525.233643,351.834686 
	C529.245605,351.917084 530.100525,350.060364 529.639160,346.625427 
	C527.099243,327.716064 524.510010,308.812592 522.139282,289.881836 
	C521.586609,285.468964 520.158508,283.186646 515.263916,284.273376 
	C513.375305,284.692688 511.093445,284.761963 509.338776,284.086609 
	C504.816498,282.345917 504.048096,285.227203 503.676636,288.350616 
	C502.441986,298.731079 501.382568,309.132355 500.214478,320.433228 
M519.716370,236.716492 
	C509.510315,234.062195 499.700287,237.821442 495.835236,245.867783 
	C491.685181,254.507507 493.967560,263.717712 501.630219,269.787994 
	C507.700989,274.597198 514.114075,275.369690 521.146240,272.080780 
	C529.326477,268.254913 533.291870,261.826416 532.594360,252.937805 
	C531.988586,245.218628 528.302246,239.407166 519.716370,236.716492 
M492.630981,362.328918 
	C490.633545,362.348785 488.623932,362.234192 486.641022,362.414215 
	C481.061768,362.920685 476.889801,366.492523 475.613129,371.757538 
	C474.857941,374.871826 475.222107,377.029724 479.344055,376.649506 
	C482.311005,376.375763 485.323181,376.587006 488.315186,376.591614 
	C507.627045,376.621368 526.939575,376.576508 546.250183,376.747742 
	C550.318115,376.783783 551.133972,374.916565 550.587158,371.505554 
	C549.750977,366.289764 544.474792,362.143066 537.976501,362.389282 
	C523.176880,362.950043 508.389465,362.395782 492.630981,362.328918 
M506.378052,223.327240 
	C506.516418,224.229233 506.904846,224.858231 507.943451,224.856140 
	C511.687927,224.848633 515.432434,224.853195 519.181519,224.853195 
	C520.507019,221.168793 519.873230,217.677032 519.804260,214.259048 
	C519.704468,209.316956 517.413757,207.047180 513.007141,207.043137 
	C508.260895,207.038788 506.791779,210.263367 506.371033,214.140167 
	C506.069611,216.917587 506.318817,219.754761 506.378052,223.327240 
M344.645569,261.926208 
	C349.473358,264.891449 353.851624,264.598633 356.620972,261.125244 
	C359.338043,257.717529 358.979767,253.789825 355.539673,250.543991 
	C352.279449,247.467911 348.678772,247.494278 345.161987,249.966232 
	C341.609161,252.463562 341.303955,256.741608 344.645569,261.926208 
M674.852356,264.458618 
	C676.610901,264.790466 678.190125,264.108032 679.612671,263.303680 
	C682.892212,261.449280 683.970581,258.289276 683.617004,254.795563 
	C683.278137,251.447510 680.882446,249.546875 677.798523,248.657928 
	C674.548645,247.721146 671.833557,249.027924 669.757812,251.409866 
	C666.251282,255.433746 668.297302,261.215302 674.852356,264.458618 
z"/>
<path fill="#000000" opacity="1.000000" stroke="none" 
	d="
M490.098328,527.051147 
	C496.193054,523.872009 501.757172,520.639771 506.655243,516.219299 
	C511.711884,511.655731 513.069397,511.600769 518.196777,516.064941 
	C530.075867,526.407410 544.060486,532.359009 559.116699,535.916016 
	C565.555725,537.437256 572.264465,537.851440 578.866089,538.638550 
	C583.696228,539.214417 586.522339,541.404541 586.476135,546.640686 
	C586.380737,557.455383 586.390686,568.271362 586.406372,579.086670 
	C586.410950,582.247925 586.481384,585.415833 586.701111,588.568237 
	C586.971802,592.452576 585.641479,595.445618 581.579102,595.751038 
	C577.181091,596.081665 576.034485,592.723572 575.998352,589.079468 
	C575.900696,579.248962 575.982910,569.416870 575.900940,559.586182 
	C575.807129,548.335327 576.755859,549.433044 566.167358,547.958008 
	C547.755798,545.393066 530.684814,539.080750 515.747314,527.731140 
	C513.573608,526.079529 512.093506,525.791504 509.689362,527.501709 
	C494.675903,538.181580 478.277222,545.388000 459.756165,547.584045 
	C449.257538,548.828918 449.305511,549.210632 449.311127,559.869690 
	C449.320099,576.867004 449.814636,593.881836 449.208282,610.857300 
	C448.445740,632.205261 457.492493,649.256409 471.259735,664.292358 
	C481.591370,675.576111 494.316742,683.872009 507.692108,691.200195 
	C511.086212,693.059814 513.994629,693.377991 517.423096,691.272888 
	C522.242615,688.313599 527.333069,685.798096 532.277161,683.038086 
	C535.138306,681.440979 537.091431,681.923096 538.768188,684.935913 
	C540.436890,687.934326 540.540649,690.187683 537.301941,692.019226 
	C530.057068,696.116455 522.826416,700.238953 515.607910,704.382446 
	C513.824524,705.406128 512.113342,705.239746 510.375793,704.353333 
	C491.722412,694.837524 473.829651,684.117188 460.093933,667.972717 
	C445.952667,651.351624 437.958740,632.324524 438.559418,609.924316 
	C439.099762,589.775269 438.657593,569.600342 438.679077,549.436829 
	C438.688995,540.120911 440.643311,538.186279 450.140625,537.930481 
	C464.213806,537.551270 477.267242,533.400085 490.098328,527.051147 
z"/>
<path fill="#000000" opacity="1.000000" stroke="none" 
	d="
M552.332153,634.063599 
	C555.979309,633.182373 557.319214,631.191772 557.103394,627.792053 
	C556.957031,625.486511 557.212158,623.132935 557.496704,620.826599 
	C558.864929,609.736206 566.959045,602.326294 577.114929,602.781311 
	C588.687561,603.299866 597.650452,611.789856 598.190186,622.789490 
	C598.279846,624.617371 598.334167,626.467224 598.159241,628.283386 
	C597.848633,631.509583 598.910889,633.364685 602.170593,634.637451 
	C607.284546,636.634399 609.047119,641.378784 609.173340,646.383240 
	C609.437927,656.872070 609.421753,667.375854 609.191833,677.866333 
	C609.050232,684.328918 604.100037,689.207092 597.614807,689.288696 
	C584.123230,689.458496 570.625061,689.465149 557.134766,689.233826 
	C550.656006,689.122803 545.846069,684.133850 545.765137,677.612976 
	C545.630920,666.787415 545.741394,655.955505 545.957886,645.130432 
	C546.048950,640.576355 547.949585,636.746582 552.332153,634.063599 
M557.426575,644.317505 
	C556.143738,645.647217 556.160950,647.326172 556.164429,649.003174 
	C556.181519,657.334412 556.349365,665.669434 556.142761,673.995117 
	C556.051941,677.658020 557.473022,679.002991 560.974365,679.291809 
	C571.628662,680.170593 582.291931,679.392273 592.942505,679.715271 
	C597.254211,679.846069 598.945374,678.027344 598.903137,673.794006 
	C598.815002,664.965210 598.722107,656.123596 599.109070,647.308228 
	C599.304749,642.849548 597.156006,642.031067 593.665955,642.510498 
	C583.538818,643.901550 573.388306,643.182068 563.245972,642.963562 
	C561.400574,642.923767 559.594910,642.509033 557.426575,644.317505 
M567.107361,621.437195 
	C566.746033,635.487732 566.507080,632.635254 577.212891,632.765991 
	C578.040710,632.776062 578.868713,632.768860 579.696655,632.771484 
	C587.902405,632.796936 587.902405,632.797119 587.860596,624.697327 
	C587.825989,617.986206 585.432373,614.267639 580.575684,613.379639 
	C573.813599,612.143250 570.072021,614.217957 567.107361,621.437195 
z"/>
<path fill="#000000" opacity="1.000000" stroke="none" 
	d="
M501.745361,577.543945 
	C505.760681,576.665161 507.318420,574.412903 507.385162,570.704529 
	C507.438660,567.732239 508.226898,564.772705 512.002258,564.792969 
	C515.784180,564.813293 517.277222,567.577942 517.186951,570.845337 
	C517.083618,574.585510 518.442932,576.448853 522.198669,576.715881 
	C523.497314,576.808228 524.757874,577.402649 526.041382,577.747070 
	C529.558899,578.690796 531.807190,580.658875 530.713867,584.576416 
	C529.599670,588.568604 526.473450,589.004883 523.117981,587.892395 
	C518.943726,586.508484 514.742249,585.912354 510.351990,586.073853 
	C506.375061,586.220154 503.436646,587.751404 502.642822,591.771240 
	C501.802155,596.028198 504.605713,598.165833 508.118134,599.542419 
	C513.510254,601.655640 519.230103,602.770203 524.334167,605.814087 
	C535.162048,612.271484 535.600281,627.149536 524.876343,633.858215 
	C521.189331,636.164673 516.850403,637.368958 517.394226,643.427673 
	C517.667419,646.471130 514.480530,648.100708 511.276703,647.960327 
	C507.904877,647.812561 506.369446,645.283203 506.691589,642.515869 
	C507.184998,638.277527 505.208466,636.961060 501.626251,636.307800 
	C499.687164,635.954224 497.876740,634.947083 495.964020,634.385498 
	C492.421692,633.345459 490.950775,630.987671 492.075684,627.561890 
	C493.256592,623.965393 496.338531,624.167969 499.145966,625.144287 
	C502.651367,626.363403 506.297638,626.665161 509.879761,627.378662 
	C512.626343,627.925720 515.227966,627.315247 517.608643,626.047729 
	C520.085815,624.728882 521.688416,622.679077 521.704224,619.666626 
	C521.720520,616.556763 520.003052,614.664673 517.312317,613.639648 
	C512.494812,611.804626 507.477936,610.434021 502.796722,608.312500 
	C492.987091,603.866699 489.328522,593.736389 493.906128,584.713501 
	C495.559509,581.454529 498.024933,579.103455 501.745361,577.543945 
z"/>
<path fill="#000000" opacity="1.000000" stroke="none" 
	d="
M491.692261,464.077637 
	C490.438049,460.871490 491.710510,458.813324 494.013611,457.392548 
	C496.503693,455.856354 498.855530,456.768677 500.846161,458.552551 
	C502.935608,460.425049 504.895081,462.442566 507.718201,465.178680 
	C507.718201,462.841278 507.721252,461.155945 507.717712,459.470612 
	C507.693359,447.830353 507.693542,436.189941 507.627838,424.549927 
	C507.605988,420.679993 508.518982,417.050812 512.997681,417.122009 
	C517.486511,417.193390 518.173096,420.888641 518.153992,424.729614 
	C518.096130,436.368958 518.134644,448.009064 518.204224,459.648438 
	C518.213623,461.227234 517.735352,462.924500 518.862915,464.591461 
	C521.065247,462.486359 523.176147,460.444031 525.314514,458.430908 
	C527.968567,455.932373 530.742554,456.867950 532.872559,458.863922 
	C535.199097,461.043976 534.610107,463.809174 532.524719,465.977722 
	C527.458801,471.245667 522.342285,476.469574 517.107605,481.569000 
	C513.881775,484.711548 510.615601,483.506683 507.873505,480.796326 
	C502.440735,475.426422 497.173798,469.888794 491.692261,464.077637 
z"/>
<path fill="#000000" opacity="1.000000" stroke="none" 
	d="
M364.038574,515.925537 
	C359.055695,513.961548 357.725006,511.205872 360.027191,508.261597 
	C361.460602,506.428375 363.363098,505.535583 365.702789,506.317719 
	C367.735321,506.997192 369.161469,508.338562 369.215302,510.617004 
	C369.291321,513.834778 367.378815,515.373291 364.038574,515.925537 
z"/>
<path fill="#000000" opacity="1.000000" stroke="none" 
	d="
M307.629089,515.667969 
	C303.956604,513.417664 303.331146,510.616486 305.856537,507.675995 
	C307.905609,505.290070 310.559204,505.606171 312.901215,507.523285 
	C314.645569,508.951233 314.966339,510.954102 314.076385,512.900940 
	C312.912445,515.446960 310.781525,516.449280 307.629089,515.667969 
z"/>
<path fill="#000000" opacity="1.000000" stroke="none" 
	d="
M718.588257,515.689331 
	C714.537415,516.176758 712.371460,514.434998 712.206360,510.832397 
	C712.083923,508.159790 713.839722,506.490112 716.478333,506.140045 
	C718.850830,505.825348 720.883911,506.815948 721.780823,509.034943 
	C722.969482,511.975525 721.824219,514.212952 718.588257,515.689331 
z"/>
<path fill="#000000" opacity="1.000000" stroke="none" 
	d="
M379.220184,507.116241 
	C382.766022,505.344513 385.581451,505.912048 386.968536,509.270935 
	C388.145874,512.122009 386.845490,514.587158 383.947571,515.702637 
	C380.928284,516.864807 378.812378,515.391174 377.480072,512.687683 
	C376.420624,510.537964 377.441589,508.859039 379.220184,507.116241 
z"/>
<path fill="#000000" opacity="1.000000" stroke="none" 
	d="
M343.183716,514.915161 
	C340.345428,512.075439 340.163300,509.385956 343.078430,507.093292 
	C345.521423,505.171906 348.028198,505.650238 350.008301,508.049805 
	C351.403412,509.740448 351.632233,511.655304 350.300079,513.490051 
	C348.534149,515.922302 346.296265,516.797119 343.183716,514.915161 
z"/>
<path fill="#000000" opacity="1.000000" stroke="none" 
	d="
M332.969482,510.220825 
	C331.606232,515.271851 328.986847,517.071350 325.845825,515.461121 
	C323.757843,514.390686 322.592896,512.625305 322.888000,510.227783 
	C323.161346,508.006744 324.705994,506.697479 326.745117,506.186768 
	C329.896637,505.397430 331.702911,507.166748 332.969482,510.220825 
z"/>
<path fill="#000000" opacity="1.000000" stroke="none" 
	d="
M696.696655,506.639893 
	C700.634766,505.483398 702.957947,507.014435 703.720520,510.405640 
	C704.305664,513.007690 702.658264,514.838135 700.231079,515.641846 
	C697.380493,516.585815 695.375488,515.196838 694.255249,512.678833 
	C693.151672,510.198395 694.092407,508.203491 696.696655,506.639893 
z"/>
<path fill="#000000" opacity="1.000000" stroke="none" 
	d="
M646.178833,506.767090 
	C648.487366,508.470978 649.757446,510.282166 648.606995,512.882629 
	C647.734009,514.855713 646.199219,516.036987 643.997681,516.014893 
	C641.798584,515.992859 640.293213,514.789978 639.446899,512.798462 
	C637.832092,508.998505 640.669495,506.256195 646.178833,506.767090 
z"/>
<path fill="#000000" opacity="1.000000" stroke="none" 
	d="
M402.446106,552.420288 
	C398.428040,552.945923 396.211426,551.305237 396.219391,547.633545 
	C396.224762,545.150146 397.668945,543.100830 400.420013,542.890869 
	C403.318573,542.669678 405.142334,544.328064 405.689240,547.103088 
	C406.165466,549.519531 404.967804,551.239075 402.446106,552.420288 
z"/>
<path fill="#000000" opacity="1.000000" stroke="none" 
	d="
M399.413147,561.887573 
	C404.514771,562.109314 406.664185,564.104919 405.853271,567.490845 
	C405.342102,569.625244 403.996582,570.981079 401.729858,571.236938 
	C399.549683,571.483032 397.719971,570.898132 396.805084,568.743896 
	C395.596527,565.898132 396.153229,563.546509 399.413147,561.887573 
z"/>
<path fill="#000000" opacity="1.000000" stroke="none" 
	d="
M685.413574,510.282593 
	C685.558533,513.382812 684.112915,514.988037 681.603638,515.690857 
	C679.625549,516.244812 677.951599,515.496094 676.802917,513.916626 
	C674.939514,511.354309 675.105225,508.693481 677.880676,507.098480 
	C681.181274,505.201813 683.932495,506.155945 685.413574,510.282593 
z"/>
<path fill="#000000" opacity="1.000000" stroke="none" 
	d="
M396.689880,585.821289 
	C396.659851,582.067017 398.161682,579.894653 401.650299,579.988953 
	C404.393707,580.063049 405.673218,582.136963 405.994202,584.633240 
	C406.345764,587.367737 404.839386,589.138794 402.303955,589.732605 
	C399.445099,590.402222 397.520844,589.099487 396.689880,585.821289 
z"/>
<path fill="#000000" opacity="1.000000" stroke="none" 
	d="
M661.413208,506.292175 
	C665.160706,506.208160 667.328491,507.725494 667.123108,511.262939 
	C666.970398,513.891907 665.058044,515.514404 662.543762,515.824707 
	C659.848938,516.157227 658.089172,514.517517 657.455200,511.998199 
	C656.702087,509.005432 658.324402,507.286407 661.413208,506.292175 
z"/>
<path fill="#000000" opacity="1.000000" stroke="none" 
	d="
M396.341064,529.111450 
	C397.277191,525.062256 399.714386,523.837891 403.053314,525.116455 
	C405.435059,526.028442 406.494598,528.253845 405.750214,530.785645 
	C404.929871,533.575928 402.724640,534.630615 399.964905,534.108154 
	C397.553955,533.651672 396.437561,531.897217 396.341064,529.111450 
z"/>
<path fill="#000000" opacity="1.000000" stroke="none" 
	d="
M620.961182,583.412842 
	C622.399109,580.491638 624.343506,579.315308 627.163452,580.455505 
	C629.421509,581.368530 630.397766,583.170349 630.188171,585.579529 
	C629.991272,587.842224 628.622681,589.173279 626.527771,589.725769 
	C623.204895,590.602112 621.160400,588.434753 620.961182,583.412842 
z"/>
<path fill="#000000" opacity="1.000000" stroke="none" 
	d="
M624.954590,524.789978 
	C630.043091,526.494019 631.539124,529.810974 628.901306,532.670105 
	C627.399109,534.298279 625.487000,534.640625 623.467102,533.940674 
	C621.767639,533.351685 620.831665,532.034485 620.722534,530.200195 
	C620.555237,527.387207 621.502136,525.354919 624.954590,524.789978 
z"/>
<path fill="#000000" opacity="1.000000" stroke="none" 
	d="
M620.718018,548.811951 
	C620.652039,545.267212 622.106079,543.150818 625.300659,543.088989 
	C627.904480,543.038635 629.632385,544.780823 630.066895,547.360291 
	C630.480713,549.816467 629.224854,551.641541 626.965515,552.427185 
	C623.927307,553.483765 621.829834,552.222778 620.718018,548.811951 
z"/>
<path fill="#000000" opacity="1.000000" stroke="none" 
	d="
M628.809998,600.147888 
	C630.867859,603.016907 630.683594,605.434998 628.243774,607.406555 
	C626.396423,608.899353 624.279663,609.039856 622.379211,607.450195 
	C620.502380,605.880371 620.145508,603.668274 621.166260,601.626953 
	C622.809387,598.341064 625.436829,597.832520 628.809998,600.147888 
z"/>
<path fill="#000000" opacity="1.000000" stroke="none" 
	d="
M622.129150,508.058228 
	C626.936218,506.072632 629.957397,507.242371 630.252930,510.818970 
	C630.434021,513.010681 629.475952,514.628845 627.541016,515.636658 
	C625.730896,516.579468 623.962158,516.282104 622.516235,514.976990 
	C620.368591,513.038513 620.251526,510.753357 622.129150,508.058228 
z"/>
<path fill="#000000" opacity="1.000000" stroke="none" 
	d="
M621.506348,569.230347 
	C620.186462,565.678772 620.394653,562.895081 624.223633,561.897705 
	C626.525574,561.298096 628.437256,562.301636 629.579895,564.431946 
	C630.641541,566.411072 630.328430,568.375671 628.724731,569.835815 
	C626.425354,571.929443 623.998779,571.815796 621.506348,569.230347 
z"/>
<path fill="#000000" opacity="1.000000" stroke="none" 
	d="
M403.002197,511.995850 
	C402.821808,514.595581 402.298737,516.619873 399.466736,515.848328 
	C397.136780,515.213562 395.837555,513.339111 396.088562,510.947479 
	C396.332001,508.628815 397.727814,506.755829 400.257538,506.780396 
	C403.540833,506.812225 402.881622,509.523132 403.002197,511.995850 
z"/>
<path fill="#000000" opacity="1.000000" stroke="none" 
	d="
M657.745117,393.250061 
	C653.233704,387.044220 648.509399,381.452698 644.519287,375.288239 
	C642.570374,372.277222 642.655884,369.767853 644.564575,367.041595 
	C653.339600,354.507751 662.043457,341.922699 670.952820,329.485016 
	C674.004028,325.225403 677.743042,325.216980 680.715027,329.446136 
	C689.612976,342.107788 698.326477,354.899384 707.064636,367.672638 
	C708.946716,370.423798 708.944763,373.247925 706.901855,376.018066 
	C698.319702,387.655243 689.881470,399.401276 681.136536,410.914429 
	C677.431152,415.792694 673.619873,415.619354 669.951538,410.690002 
	C665.788391,405.095734 661.935547,399.270477 657.745117,393.250061 
M690.839294,369.491211 
	C687.609192,368.517059 684.689270,366.273651 680.768372,366.922150 
	C680.341736,370.904907 679.784058,374.711853 681.268860,378.984741 
	C686.315613,376.965454 690.678589,374.831146 694.892883,372.085785 
	C694.023804,370.506378 692.612244,370.352448 690.839294,369.491211 
M663.997253,368.567627 
	C661.884338,369.625458 659.254578,369.836731 657.621155,372.226349 
	C661.210754,375.072479 664.858582,377.084869 669.412048,378.143677 
	C670.718750,374.341003 671.292664,370.787903 670.126892,367.127258 
	C667.900940,366.557068 666.391113,367.838776 663.997253,368.567627 
M685.403503,353.797485 
	C684.148010,351.787628 683.396667,349.328217 680.539612,348.323273 
	C680.539612,350.485596 680.272888,352.460663 680.613159,354.324982 
	C680.967407,356.266296 682.846375,356.552673 684.524841,356.626587 
	C686.361267,356.707489 686.304321,355.636078 685.403503,353.797485 
M667.850281,352.453003 
	C667.045715,353.992859 665.462891,355.120544 665.331116,357.076263 
	C670.880615,355.876312 671.490784,354.937042 670.049072,349.535339 
	C669.364075,350.428467 668.782959,351.186157 667.850281,352.453003 
z"/>
<path fill="#000000" opacity="1.000000" stroke="none" 
	d="
M347.582306,327.092529 
	C351.007111,326.330933 353.024719,327.892090 354.663910,330.204651 
	C363.424042,342.563171 372.204041,354.907806 380.915192,367.300781 
	C382.797852,369.979126 383.057526,372.859802 381.010803,375.657440 
	C373.353851,386.123474 365.693787,396.587250 358.021210,407.041809 
	C350.981506,416.634094 347.618713,416.870819 341.270691,406.901550 
	C334.296143,395.948395 325.261169,386.522247 318.664185,375.325775 
	C317.494324,373.340332 316.398041,371.445831 317.849487,369.343964 
	C327.573578,355.262512 335.971741,340.254395 347.582306,327.092529 
M341.951385,366.698364 
	C338.198120,368.238098 334.041748,368.965332 330.399139,372.374420 
	C335.015747,374.865021 339.015900,377.505524 345.438171,379.032959 
	C343.336029,374.259491 347.186798,369.934692 341.951385,366.698364 
M364.449097,374.164856 
	C365.524719,373.252960 367.208130,373.006531 367.744934,370.820374 
	C364.480347,369.448730 361.195770,368.010284 357.863281,366.693024 
	C356.189667,366.031494 354.622040,366.618011 354.541351,368.441986 
	C354.394043,371.772217 353.475311,375.247162 355.253693,378.510712 
	C358.823486,378.299866 360.987762,375.648712 364.449097,374.164856 
M358.234894,352.291687 
	C357.300751,351.367493 357.076630,349.585419 355.257355,349.599701 
	C353.781250,355.456421 354.050018,355.812866 360.170441,355.920166 
	C359.587830,354.792480 359.078705,353.806976 358.234894,352.291687 
M342.555511,350.492432 
	C341.721436,352.351532 339.722748,353.728088 340.138763,356.146210 
	C344.888245,355.608612 345.602478,354.199768 343.860046,348.872009 
	C343.538025,349.273315 343.233246,349.653137 342.555511,350.492432 
z"/>
<path fill="#000000" opacity="1.000000" stroke="none" 
	d="
M580.946167,675.848877 
	C574.315247,677.716858 572.043030,676.211975 571.480896,670.130737 
	C571.280701,667.964966 570.557251,666.076172 569.085266,664.270081 
	C565.448181,659.807495 565.862549,652.878113 569.659119,649.253540 
	C573.288086,645.789001 579.342285,645.803162 583.326843,649.285583 
	C588.918396,654.172546 589.639404,658.332947 585.477905,664.019775 
	C583.820312,666.284973 582.662415,668.467041 583.028870,671.317749 
	C583.251587,673.050659 583.023499,674.663391 580.946167,675.848877 
z"/>
</svg>